<svg width="146" height="120" viewBox="0 0 146 120" fill="none" xmlns="http://www.w3.org/2000/svg">
<path d="M86.9331 104.781C86.9331 96.2762 80.0811 89.3821 71.6299 89.3821C63.1749 89.384 56.3229 96.2762 56.3229 104.783C56.3229 112.467 61.92 118.837 69.235 119.992V109.232H65.3518V104.783H69.2388V101.387C69.2388 97.5291 71.5247 95.3982 75.0196 95.3982C76.6953 95.3982 78.4456 95.6985 78.4456 95.6985V99.486H76.5155C74.616 99.486 74.023 100.674 74.023 101.892V104.781H78.2658L77.5886 109.23H74.021V119.99C81.336 118.835 86.9331 112.465 86.9331 104.781Z" fill="#BEBEBE"/>
<path d="M130.415 89.3896C126.262 89.3896 125.739 89.4088 124.107 89.4815C122.475 89.558 121.364 89.8144 120.39 90.1932C119.368 90.5764 118.443 91.1792 117.679 91.959C116.899 92.7226 116.297 93.648 115.913 94.6699C115.535 95.6418 115.276 96.7552 115.202 98.3814C115.129 100.017 115.11 100.538 115.11 104.697C115.11 108.852 115.129 109.372 115.202 111.004C115.278 112.634 115.535 113.746 115.913 114.72C116.306 115.726 116.828 116.579 117.679 117.431C118.529 118.282 119.382 118.806 120.388 119.196C121.364 119.575 122.474 119.833 124.104 119.908C125.737 119.981 126.258 120 130.415 120C134.572 120 135.091 119.981 136.725 119.908C138.353 119.832 139.468 119.575 140.442 119.196C141.463 118.813 142.388 118.21 143.151 117.431C144.002 116.579 144.524 115.726 144.917 114.72C145.294 113.746 145.552 112.634 145.628 111.004C145.701 109.372 145.72 108.852 145.72 104.695C145.72 100.538 145.701 100.017 145.628 98.3833C145.552 96.7552 145.294 95.6418 144.917 94.6699C144.533 93.648 143.931 92.7226 143.151 91.959C142.387 91.1792 141.462 90.5764 140.44 90.1932C139.464 89.8144 138.351 89.5561 136.723 89.4815C135.089 89.4088 134.57 89.3896 130.411 89.3896H130.415ZM129.043 92.1484H130.417C134.503 92.1484 134.987 92.1618 136.6 92.2364C138.092 92.3034 138.904 92.554 139.443 92.7625C140.157 93.0399 140.668 93.3728 141.203 93.9085C141.739 94.4442 142.07 94.9531 142.347 95.6686C142.558 96.2062 142.806 97.0173 142.873 98.5096C142.948 100.122 142.963 100.606 142.963 104.691C142.963 108.776 142.948 109.261 142.873 110.874C142.806 112.366 142.556 113.176 142.347 113.715C142.1 114.379 141.709 114.979 141.201 115.473C140.666 116.009 140.157 116.34 139.441 116.617C138.906 116.828 138.094 117.077 136.6 117.146C134.987 117.218 134.503 117.235 130.417 117.235C126.33 117.235 125.845 117.218 124.232 117.146C122.74 117.077 121.93 116.828 121.391 116.617C120.727 116.371 120.125 115.98 119.631 115.473C119.122 114.979 118.73 114.378 118.483 113.713C118.274 113.176 118.024 112.365 117.957 110.872C117.884 109.26 117.869 108.776 117.869 104.687C117.869 100.599 117.884 100.119 117.957 98.5058C118.026 97.0135 118.274 96.2023 118.485 95.6628C118.762 94.9492 119.095 94.4384 119.631 93.9027C120.166 93.3671 120.675 93.0361 121.391 92.7587C121.93 92.5482 122.74 92.2995 124.232 92.2307C125.644 92.1656 126.191 92.1465 129.043 92.1446V92.1484ZM138.586 94.6891C138.345 94.6891 138.106 94.7366 137.883 94.8289C137.66 94.9212 137.458 95.0564 137.287 95.227C137.117 95.3975 136.982 95.6 136.889 95.8228C136.797 96.0457 136.749 96.2845 136.749 96.5257C136.749 96.7669 136.797 97.0057 136.889 97.2285C136.982 97.4513 137.117 97.6538 137.287 97.8243C137.458 97.9949 137.66 98.1302 137.883 98.2225C138.106 98.3148 138.345 98.3623 138.586 98.3623C139.073 98.3623 139.54 98.1688 139.885 97.8243C140.229 97.4799 140.423 97.0128 140.423 96.5257C140.423 96.0386 140.229 95.5714 139.885 95.227C139.54 94.8826 139.073 94.6891 138.586 94.6891ZM130.417 96.8356C129.374 96.8193 128.339 97.0106 127.371 97.3983C126.403 97.786 125.522 98.3624 124.779 99.0939C124.036 99.8254 123.446 100.697 123.043 101.659C122.641 102.621 122.433 103.653 122.433 104.696C122.433 105.738 122.641 106.771 123.043 107.732C123.446 108.694 124.036 109.566 124.779 110.298C125.522 111.029 126.403 111.605 127.371 111.993C128.339 112.381 129.374 112.572 130.417 112.556C132.48 112.524 134.448 111.681 135.896 110.211C137.344 108.74 138.155 106.759 138.155 104.696C138.155 102.632 137.344 100.651 135.896 99.1806C134.448 97.7101 132.48 96.8678 130.417 96.8356ZM130.417 99.5924C131.087 99.5924 131.75 99.7244 132.37 99.9808C132.989 100.237 133.551 100.613 134.025 101.087C134.499 101.561 134.874 102.123 135.131 102.742C135.387 103.361 135.519 104.025 135.519 104.695C135.519 105.365 135.387 106.028 135.131 106.647C134.874 107.266 134.499 107.829 134.025 108.303C133.551 108.776 132.989 109.152 132.37 109.409C131.75 109.665 131.087 109.797 130.417 109.797C129.064 109.797 127.766 109.26 126.809 108.303C125.852 107.346 125.315 106.048 125.315 104.695C125.315 103.342 125.852 102.044 126.809 101.087C127.766 100.13 129.064 99.5924 130.417 99.5924Z" fill="#BEBEBE"/>
<path d="M26.0205 93.8321C24.6175 92.4155 22.9463 91.2923 21.1046 90.5283C19.2629 89.7643 17.2875 89.3747 15.2936 89.3822C6.93894 89.3822 0.130093 96.1891 0.122441 104.546C0.122441 107.222 0.822648 109.826 2.14462 112.131L0 119.992L8.04282 117.884C10.2668 119.097 12.7601 119.732 15.2936 119.73H15.3013C23.6578 119.73 30.4648 112.923 30.4724 104.559C30.4741 102.566 30.0815 100.592 29.3171 98.7507C28.5527 96.9097 27.4336 95.2381 26.0205 93.8321ZM15.2936 117.163C13.0345 117.161 10.8173 116.553 8.87312 115.403L8.41397 115.127L3.64261 116.378L4.91676 111.724L4.61831 111.244C3.35527 109.235 2.68728 106.91 2.69178 104.538C2.69178 97.601 8.34892 91.942 15.3013 91.942C16.9575 91.939 18.598 92.2639 20.1281 92.8979C21.6582 93.532 23.0477 94.4626 24.2165 95.6362C25.389 96.8054 26.3186 98.1951 26.9517 99.7252C27.5847 101.255 27.9087 102.896 27.905 104.551C27.8973 111.513 22.2402 117.163 15.2936 117.163ZM22.2096 107.723C21.8327 107.534 19.9712 106.618 19.6211 106.488C19.2729 106.363 19.0185 106.298 18.7698 106.677C18.5153 107.054 17.7883 107.913 17.5702 108.16C17.3521 108.414 17.1264 108.443 16.7476 108.255C16.3707 108.064 15.1482 107.666 13.7019 106.371C12.5731 105.366 11.8174 104.123 11.5917 103.746C11.3736 103.367 11.5706 103.164 11.76 102.975C11.9265 102.807 12.1369 102.531 12.3263 102.313C12.5176 102.095 12.5808 101.934 12.7051 101.682C12.8295 101.425 12.7702 101.207 12.6764 101.018C12.5808 100.828 11.8251 98.9593 11.5056 98.2056C11.1995 97.4614 10.8876 97.5647 10.6542 97.5551C10.4361 97.5417 10.1817 97.5417 9.92726 97.5417C9.73513 97.5466 9.54608 97.5911 9.37194 97.6724C9.19779 97.7537 9.04231 97.8701 8.91521 98.0143C8.56702 98.3931 7.59323 99.3094 7.59323 101.179C7.59323 103.048 8.95156 104.844 9.14287 105.099C9.33036 105.353 11.8098 109.177 15.615 110.823C16.5142 111.215 17.222 111.446 17.7749 111.622C18.6837 111.913 19.5044 111.869 20.1587 111.775C20.8857 111.664 22.399 110.857 22.7185 109.971C23.0322 109.084 23.0322 108.326 22.9366 108.167C22.8428 108.007 22.5884 107.913 22.2096 107.723Z" fill="#BEBEBE"/>
<path d="M28.0254 54.1638H42.6523V59.4277H33.9291V62.761H41.9077V67.8976H33.9206V75.4267H28.0254V54.1638Z" fill="#BEBEBE"/>
<path d="M52.6956 60.0887H58.3534V61.8394C58.6454 61.5677 58.8896 61.3215 59.1509 61.0991C60.6537 59.8204 62.3683 59.3314 64.3049 59.8187C65.6677 60.1618 66.5028 61.1008 66.9997 62.3658C67.3805 63.3354 67.5206 64.3508 67.5206 65.3883C67.5172 68.657 67.5154 71.9258 67.512 75.1928C67.512 75.2675 67.512 75.3405 67.512 75.4271H61.8389V75.0994C61.8389 72.2484 61.8389 69.3974 61.8389 66.5447C61.8389 66.3579 61.8355 66.1677 61.8013 65.986C61.6732 65.3187 61.1063 64.9791 60.4129 65.1438C59.7776 65.2949 59.3131 65.7008 58.8725 66.1507C58.5037 66.5277 58.3431 66.9369 58.35 67.4871C58.3824 70.0223 58.3653 72.5591 58.3653 75.096V75.4203H52.6973V60.0887H52.6956Z" fill="#BEBEBE"/>
<path d="M86.3911 75.4183V60.0901H92.0489V61.7881C92.0677 61.7966 92.0865 61.8068 92.1035 61.8153C92.194 61.7202 92.2829 61.6251 92.3751 61.5334C93.3434 60.574 94.4551 59.8761 95.8384 59.6978C98.3044 59.3786 100.162 60.3872 100.897 62.9377C101.131 63.751 101.223 64.5865 101.221 65.4338C101.214 68.6771 101.214 71.9203 101.211 75.1619C101.211 75.2451 101.211 75.3283 101.211 75.4268H95.5378V75.1058C95.5378 72.2548 95.5378 69.4038 95.5378 66.5511C95.5378 66.3643 95.5361 66.1741 95.502 65.9925C95.3756 65.3132 94.8018 64.9736 94.0931 65.1519C93.3195 65.3455 92.7986 65.8804 92.3119 66.4611C92.1343 66.6717 92.0557 66.8924 92.0574 67.176C92.0694 69.8147 92.0643 72.4535 92.0643 75.0922V75.42H86.3928L86.3911 75.4183Z" fill="#BEBEBE"/>
<path d="M78.2383 66.5108C78.2383 66.1083 78.2793 65.7382 78.2297 65.3799C78.1136 64.5139 77.4954 63.9977 76.5664 63.945C75.2429 63.872 73.986 64.1658 72.765 64.6395C72.3927 64.7839 72.034 64.9622 71.6464 65.1354C71.532 64.8467 71.4158 64.558 71.3014 64.2694C70.9582 63.4102 70.6217 62.5475 70.2682 61.6917C70.2016 61.5304 70.2324 61.4506 70.3673 61.3589C71.1836 60.8105 72.087 60.4556 73.0228 60.1771C74.7408 59.6643 76.4981 59.5233 78.2759 59.7169C79.4388 59.8426 80.5557 60.138 81.565 60.7646C82.8697 61.5746 83.587 62.7632 83.838 64.2405C83.9234 64.7397 83.9473 65.2559 83.949 65.7636C83.9609 67.6451 83.9148 69.5265 83.9627 71.4062C83.9951 72.6781 84.1488 73.9482 84.2479 75.22C84.253 75.2794 84.2547 75.3389 84.2598 75.4187H78.8428C78.7626 74.9823 78.6789 74.5323 78.5952 74.084C78.5645 74.0535 78.5337 74.0229 78.5047 73.9923C78.4774 74.0637 78.4688 74.1503 78.421 74.2046C77.1727 75.6004 75.5981 76.0758 73.7691 75.8279C72.7052 75.6836 71.7352 75.3253 70.912 74.6189C69.9591 73.8039 69.4536 72.7528 69.2675 71.5353C69.0899 70.3704 69.247 69.2616 69.8925 68.253C70.7208 66.9591 71.9333 66.2187 73.4276 65.9402C74.9867 65.6499 76.5066 65.857 77.9855 66.4106C78.0641 66.4395 78.1409 66.47 78.2366 66.5057L78.2383 66.5108ZM78.2605 70.328C78.2605 69.9968 78.2656 69.6657 78.2571 69.3346C78.2554 69.2616 78.2178 69.1461 78.1666 69.1275C77.3844 68.8218 76.5852 68.6639 75.7877 69.0561C75.1729 69.3584 74.8672 69.878 74.8843 70.5623C74.9013 71.2466 75.248 71.7221 75.8936 71.953C76.6655 72.2298 77.3878 72.0973 78.0504 71.6202C78.199 71.5132 78.2793 71.3926 78.2656 71.1957C78.2468 70.9087 78.2605 70.6183 78.2605 70.3297V70.328Z" fill="#BEBEBE"/>
<path d="M116.581 61.3107C115.638 62.7642 114.711 64.1922 113.78 65.6271C113.042 65.1771 112.253 64.9581 111.404 64.97C109.83 64.9937 108.634 66.1246 108.583 67.6919C108.542 68.9705 109.441 70.4173 111.191 70.5361C112.113 70.599 112.972 70.3867 113.78 69.896C114.712 71.3325 115.638 72.7606 116.57 74.1971C116.048 74.6165 115.477 74.9442 114.866 75.1837C112.038 76.2908 109.27 76.1838 106.689 74.5469C104.029 72.859 102.755 70.3612 102.927 67.2233C103.124 63.6319 105.801 60.6179 109.369 59.8572C111.681 59.3647 113.87 59.6806 115.92 60.8726C116.14 61.0016 116.347 61.1528 116.582 61.309L116.581 61.3107Z" fill="#BEBEBE"/>
<path d="M50.1818 60.0935V75.4234H44.5274V60.0935H50.1818Z" fill="#BEBEBE"/>
<path d="M47.3572 58.8487C45.5299 58.8453 44.0544 57.3867 44.0493 55.5799C44.0459 53.7664 45.5401 52.2874 47.3657 52.2959C49.1896 52.3044 50.6651 53.7749 50.6583 55.5765C50.6514 57.385 49.1708 58.8504 47.3555 58.847L47.3572 58.8487Z" fill="#BEBEBE"/>
<path d="M38.7425 36.6887C35.6752 36.6887 33.1882 39.1616 33.1882 42.2115C33.1882 45.2615 35.6752 47.7343 38.7425 47.7343C41.8099 47.7343 44.2969 45.2615 44.2969 42.2115C44.2969 39.1616 41.8099 36.6887 38.7425 36.6887Z" fill="#BEBEBE"/>
<path d="M122.386 0C120.363 0 118.723 1.63067 118.723 3.64187V32.3335C118.723 36.0519 116.344 39.4001 112.804 40.664C110.9 41.3439 109.912 43.4294 110.595 45.3229C111.132 46.8084 112.541 47.734 114.042 47.734C114.454 47.734 114.872 47.6655 115.28 47.5181C121.72 45.2177 126.047 39.1144 126.047 32.3323V3.64187C126.047 1.63067 124.407 0 122.385 0H122.386Z" fill="#BEBEBE"/>
<path d="M94.9839 18.983V3.64187C94.9839 1.63067 93.3439 0 91.3212 0C89.2985 0 87.6585 1.63067 87.6585 3.64187V5.58108C91.3361 9.14411 93.9519 13.7847 94.9839 18.9841V18.983Z" fill="#BEBEBE"/>
<path d="M100.901 40.6641C97.3617 39.4002 94.9827 36.052 94.9827 32.3336V28.9111C94.1541 33.0707 92.3015 36.9034 89.6858 40.1121C91.5591 43.4775 94.6242 46.1606 98.4259 47.5193C98.8351 47.6656 99.2522 47.7353 99.6637 47.7353C101.166 47.7353 102.574 46.8097 103.11 45.3241C103.794 43.4306 102.806 41.3452 100.901 40.6652V40.6641Z" fill="#BEBEBE"/>
<path d="M47.4206 25.5593C46.0174 25.0417 44.9015 24.011 44.2786 22.6568C44.197 22.4808 44.1257 22.3014 44.0637 22.1197C41.094 27.1912 39.1368 27.2529 39.0391 27.262C35.5465 27.222 29.9151 16.1616 27.2143 6.3021C26.6512 4.24748 24.5216 3.03619 22.453 3.59155C20.3866 4.1492 19.1661 6.26782 19.7269 8.32359C21.4244 14.5423 27.828 34.8417 38.946 34.9766H39.0632C43.4741 34.9766 47.3793 31.9518 50.965 25.6691C50.4512 25.8245 49.9122 25.9079 49.3629 25.9079C48.6998 25.9079 48.0458 25.7902 47.4206 25.5593Z" fill="#BEBEBE"/>
<path d="M69.6474 0C64.0677 0 59.5925 1.22158 55.8827 3.87842C52.5303 6.27929 49.8054 9.86631 47.4839 14.8315C46.9472 15.9799 46.43 17.2003 45.9335 18.4985C45.8692 18.6665 45.8014 18.8207 45.7381 18.991C44.9923 20.9873 46.0151 23.2099 48.0229 23.9516C49.9088 24.6498 51.9775 23.7825 52.8429 22.0226C52.8992 21.9084 52.967 21.8021 53.0118 21.6798C53.0428 21.5976 53.0739 21.5267 53.1049 21.4444C53.6336 20.0492 54.168 18.783 54.7139 17.6494C58.6754 9.41379 63.1874 7.71456 69.6485 7.71456C78.6587 7.71456 85.9899 15.004 85.9899 23.963C85.9899 32.0215 79.9482 38.9396 71.9355 40.0538C69.814 40.3486 68.3338 42.2981 68.6303 44.4075C68.9015 46.3365 70.5633 47.7317 72.4677 47.7317C72.6469 47.7317 72.8274 47.7203 73.0101 47.694C84.8337 46.0508 93.7497 35.8485 93.7497 23.963C93.7485 10.7496 82.9374 0 69.6474 0Z" fill="#BEBEBE"/>
</svg>
