<svg width="587" height="304" viewBox="0 0 587 304" fill="none" xmlns="http://www.w3.org/2000/svg">
<g filter="url(#filter0_d_118_542)">
<path d="M68.6851 31.0487L83.4241 29.63L68.8297 32.1412C58.5529 33.9093 51.3773 43.3037 52.3754 53.6836L53.7926 68.4246L51.2814 53.8301C49.5134 43.5533 40.1189 36.3778 29.739 37.3759L15.0015 38.7926L29.596 36.2814C39.8728 34.5134 47.0483 25.1189 46.0502 14.739L44.6315 0L47.1427 14.5945C48.9108 24.8713 58.3052 32.0468 68.6851 31.0487Z" fill="url(#paint0_linear_118_542)"/>
</g>
<g filter="url(#filter1_d_118_542)">
<path d="M575.592 260.898L586.462 259.852L575.699 261.704C568.12 263.008 562.828 269.936 563.564 277.591L564.609 288.463L562.757 277.699C561.453 270.12 554.525 264.828 546.87 265.564L536.001 266.609L546.764 264.757C554.344 263.453 559.635 256.525 558.899 248.87L557.853 238L559.705 248.763C561.009 256.342 567.937 261.634 575.592 260.898Z" fill="url(#paint1_linear_118_542)"/>
</g>
<defs>
<filter id="filter0_d_118_542" x="0.601526" y="0" width="82.8226" height="83.8248" filterUnits="userSpaceOnUse" color-interpolation-filters="sRGB">
<feFlood flood-opacity="0" result="BackgroundImageFix"/>
<feColorMatrix in="SourceAlpha" type="matrix" values="0 0 0 0 0 0 0 0 0 0 0 0 0 0 0 0 0 0 127 0" result="hardAlpha"/>
<feOffset dx="-8" dy="9"/>
<feGaussianBlur stdDeviation="3.2"/>
<feComposite in2="hardAlpha" operator="out"/>
<feColorMatrix type="matrix" values="0 0 0 0 0 0 0 0 0 0 0 0 0 0 0 0 0 0 0.5 0"/>
<feBlend mode="normal" in2="BackgroundImageFix" result="effect1_dropShadow_118_542"/>
<feBlend mode="normal" in="SourceGraphic" in2="effect1_dropShadow_118_542" result="shape"/>
</filter>
<filter id="filter1_d_118_542" x="521.601" y="238" width="64.8613" height="65.8629" filterUnits="userSpaceOnUse" color-interpolation-filters="sRGB">
<feFlood flood-opacity="0" result="BackgroundImageFix"/>
<feColorMatrix in="SourceAlpha" type="matrix" values="0 0 0 0 0 0 0 0 0 0 0 0 0 0 0 0 0 0 127 0" result="hardAlpha"/>
<feOffset dx="-8" dy="9"/>
<feGaussianBlur stdDeviation="3.2"/>
<feComposite in2="hardAlpha" operator="out"/>
<feColorMatrix type="matrix" values="0 0 0 0 0 0 0 0 0 0 0 0 0 0 0 0 0 0 0.5 0"/>
<feBlend mode="normal" in2="BackgroundImageFix" result="effect1_dropShadow_118_542"/>
<feBlend mode="normal" in="SourceGraphic" in2="effect1_dropShadow_118_542" result="shape"/>
</filter>
<linearGradient id="paint0_linear_118_542" x1="29.8158" y1="19.3973" x2="68.6084" y2="49.0273" gradientUnits="userSpaceOnUse">
<stop stop-color="#00FFDA"/>
<stop offset="1" stop-color="#3C3DF7"/>
</linearGradient>
<linearGradient id="paint1_linear_118_542" x1="546.927" y1="252.305" x2="575.536" y2="274.157" gradientUnits="userSpaceOnUse">
<stop stop-color="#00FFDA"/>
<stop offset="1" stop-color="#3C3DF7"/>
</linearGradient>
</defs>
</svg>
