<svg width="332" height="25" viewBox="0 0 332 25" fill="none" xmlns="http://www.w3.org/2000/svg">
<path fill-rule="evenodd" clip-rule="evenodd" d="M13.2202 21.4286C18.1513 21.4286 22.1487 17.4311 22.1487 12.5C22.1487 7.56889 18.1513 3.57143 13.2202 3.57143C8.28904 3.57143 4.29158 7.56889 4.29158 12.5C4.29158 17.4311 8.28904 21.4286 13.2202 21.4286ZM13.2202 25C20.1237 25 25.7202 19.4036 25.7202 12.5C25.7202 5.59644 20.1237 0 13.2202 0C6.31659 0 0.720154 5.59644 0.720154 12.5C0.720154 19.4036 6.31659 25 13.2202 25Z" fill="#BEBEBE"/>
<path d="M12.9802 19.32C11.7402 19.32 10.6468 19.0267 9.70015 18.44C8.76682 17.8533 8.03349 17.0267 7.50015 15.96C6.98015 14.88 6.72015 13.6133 6.72015 12.16C6.72015 10.6933 6.98015 9.42667 7.50015 8.36C8.03349 7.29333 8.76682 6.46667 9.70015 5.88C10.6468 5.29333 11.7402 5 12.9802 5C13.9802 5 14.8802 5.18667 15.6802 5.56C16.4935 5.93333 17.1735 6.46667 17.7202 7.16C18.2668 7.84 18.6402 8.66 18.8402 9.62L16.1002 10.38C15.9402 9.48667 15.5868 8.8 15.0402 8.32C14.5068 7.84 13.8135 7.6 12.9602 7.6C11.9335 7.6 11.1068 8 10.4802 8.8C9.85349 9.6 9.54015 10.72 9.54015 12.16C9.54015 13.5867 9.85349 14.7067 10.4802 15.52C11.1068 16.32 11.9335 16.72 12.9602 16.72C13.8402 16.72 14.5535 16.48 15.1002 16C15.6468 15.5067 16.0002 14.8067 16.1602 13.9L18.9002 14.66C18.6868 15.6333 18.3068 16.4667 17.7602 17.16C17.2135 17.8533 16.5335 18.3867 15.7202 18.76C14.9202 19.1333 14.0068 19.32 12.9802 19.32Z" fill="#BEBEBE"/>
<path d="M329.12 19.9999C329.04 19.6532 328.973 19.2999 328.92 18.9399C328.88 18.5799 328.86 18.2266 328.86 17.8799V13.3999C328.86 12.6532 328.68 12.1266 328.32 11.8199C327.96 11.4999 327.526 11.3399 327.02 11.3399C326.54 11.3399 326.126 11.4732 325.78 11.7399C325.446 11.9932 325.213 12.4066 325.08 12.9799L322.54 12.3599C322.833 11.3066 323.386 10.5066 324.2 9.95989C325.013 9.41323 326.006 9.13989 327.18 9.13989C328.526 9.13989 329.586 9.49989 330.36 10.2199C331.133 10.9266 331.52 11.9066 331.52 13.1599V17.6399C331.52 18.4266 331.62 19.2132 331.82 19.9999H329.12ZM325.5 20.2599C324.5 20.2599 323.726 19.9866 323.18 19.4399C322.646 18.8932 322.38 18.1866 322.38 17.3199C322.38 16.5332 322.64 15.8399 323.16 15.2399C323.693 14.6399 324.52 14.2532 325.64 14.0799L329.56 13.4199V15.1799L326.58 15.7999C326.006 15.9199 325.606 16.0999 325.38 16.3399C325.153 16.5666 325.04 16.8199 325.04 17.0999C325.04 17.3799 325.133 17.6199 325.32 17.8199C325.52 18.0066 325.826 18.0999 326.24 18.0999C326.666 18.0999 327.08 18.0066 327.48 17.8199C327.88 17.6199 328.206 17.3332 328.46 16.9599C328.726 16.5732 328.86 16.1132 328.86 15.5799H329.54C329.54 16.5399 329.36 17.3732 329 18.0799C328.64 18.7732 328.153 19.3132 327.54 19.6999C326.94 20.0732 326.26 20.2599 325.5 20.2599Z" fill="#BEBEBE"/>
<path d="M316.149 20.2599C315.175 20.2599 314.309 20.0266 313.549 19.5599C312.789 19.0932 312.195 18.4466 311.769 17.6199C311.355 16.7799 311.149 15.8066 311.149 14.6999C311.149 13.5666 311.362 12.5866 311.789 11.7599C312.215 10.9199 312.809 10.2732 313.569 9.81989C314.329 9.36656 315.195 9.13989 316.169 9.13989C317.142 9.13989 318.002 9.36656 318.749 9.81989C319.495 10.2732 320.075 10.9132 320.489 11.7399C320.915 12.5666 321.129 13.5532 321.129 14.6999C321.129 14.8332 321.122 14.9599 321.109 15.0799C321.109 15.1999 321.109 15.3332 321.109 15.4799H312.809V13.6199H319.149L318.409 14.6999C318.409 13.5132 318.209 12.6666 317.809 12.1599C317.422 11.6399 316.875 11.3799 316.169 11.3799C315.489 11.3799 314.935 11.6399 314.509 12.1599C314.095 12.6666 313.889 13.5132 313.889 14.6999C313.889 15.8066 314.102 16.6266 314.529 17.1599C314.955 17.6799 315.535 17.9399 316.269 17.9399C316.762 17.9399 317.189 17.8266 317.549 17.5999C317.909 17.3732 318.175 17.0199 318.349 16.5399L320.849 17.2599C320.569 18.1666 320.022 18.8932 319.209 19.4399C318.409 19.9866 317.389 20.2599 316.149 20.2599Z" fill="#BEBEBE"/>
<path d="M306.728 20V13.88C306.728 13.0933 306.535 12.5 306.148 12.1C305.761 11.7 305.281 11.5 304.708 11.5C304.135 11.5 303.655 11.7 303.268 12.1C302.881 12.5 302.688 13.0933 302.688 13.88H302.108C302.108 12.88 302.261 12.0266 302.568 11.32C302.888 10.6133 303.321 10.0733 303.868 9.69995C304.428 9.32662 305.075 9.13995 305.808 9.13995C306.502 9.13995 307.115 9.31328 307.648 9.65995C308.195 9.99329 308.621 10.4733 308.928 11.1C309.235 11.7133 309.388 12.46 309.388 13.34V20H306.728ZM300.028 20V5.69995H302.688V20H300.028Z" fill="#BEBEBE"/>
<path d="M293.669 20.2599C292.683 20.2599 291.809 20.0266 291.049 19.5599C290.289 19.0932 289.696 18.4466 289.269 17.6199C288.843 16.7799 288.629 15.8066 288.629 14.6999C288.629 13.5799 288.843 12.6066 289.269 11.7799C289.696 10.9532 290.289 10.3066 291.049 9.83989C291.809 9.37323 292.683 9.13989 293.669 9.13989C294.856 9.13989 295.856 9.45323 296.669 10.0799C297.496 10.7066 298.043 11.5799 298.309 12.6999L295.709 13.3599C295.576 12.7332 295.336 12.2732 294.989 11.9799C294.643 11.6732 294.189 11.5199 293.629 11.5199C292.963 11.5199 292.416 11.7866 291.989 12.3199C291.576 12.8399 291.369 13.6332 291.369 14.6999C291.369 15.7666 291.576 16.5666 291.989 17.0999C292.416 17.6199 292.963 17.8799 293.629 17.8799C294.189 17.8799 294.649 17.7332 295.009 17.4399C295.369 17.1332 295.609 16.6732 295.729 16.0599L298.349 16.6599C298.083 17.7932 297.529 18.6799 296.689 19.3199C295.863 19.9466 294.856 20.2599 293.669 20.2599Z" fill="#BEBEBE"/>
<path d="M282.418 20.2599C281.445 20.2599 280.578 20.0266 279.818 19.5599C279.058 19.0932 278.465 18.4466 278.038 17.6199C277.625 16.7799 277.418 15.8066 277.418 14.6999C277.418 13.5666 277.632 12.5866 278.058 11.7599C278.485 10.9199 279.078 10.2732 279.838 9.81989C280.598 9.36656 281.465 9.13989 282.438 9.13989C283.412 9.13989 284.272 9.36656 285.018 9.81989C285.765 10.2732 286.345 10.9132 286.758 11.7399C287.185 12.5666 287.398 13.5532 287.398 14.6999C287.398 14.8332 287.392 14.9599 287.378 15.0799C287.378 15.1999 287.378 15.3332 287.378 15.4799H279.078V13.6199H285.418L284.678 14.6999C284.678 13.5132 284.478 12.6666 284.078 12.1599C283.692 11.6399 283.145 11.3799 282.438 11.3799C281.758 11.3799 281.205 11.6399 280.778 12.1599C280.365 12.6666 280.158 13.5132 280.158 14.6999C280.158 15.8066 280.372 16.6266 280.798 17.1599C281.225 17.6799 281.805 17.9399 282.538 17.9399C283.032 17.9399 283.458 17.8266 283.818 17.5999C284.178 17.3732 284.445 17.0199 284.618 16.5399L287.118 17.2599C286.838 18.1666 286.292 18.8932 285.478 19.4399C284.678 19.9866 283.658 20.2599 282.418 20.2599Z" fill="#BEBEBE"/>
<path d="M271.073 20.2599C270.086 20.2599 269.206 20.0266 268.433 19.5599C267.673 19.0932 267.073 18.4466 266.633 17.6199C266.206 16.7932 265.993 15.8199 265.993 14.6999C265.993 13.5799 266.206 12.6066 266.633 11.7799C267.073 10.9399 267.673 10.2932 268.433 9.83989C269.206 9.37323 270.086 9.13989 271.073 9.13989C272.086 9.13989 272.973 9.37323 273.733 9.83989C274.493 10.2932 275.086 10.9399 275.513 11.7799C275.953 12.6066 276.173 13.5799 276.173 14.6999C276.173 15.8199 275.953 16.7932 275.513 17.6199C275.086 18.4466 274.493 19.0932 273.733 19.5599C272.973 20.0266 272.086 20.2599 271.073 20.2599ZM271.073 17.8799C271.806 17.8799 272.379 17.6199 272.793 17.0999C273.219 16.5799 273.433 15.7799 273.433 14.6999C273.433 13.6199 273.219 12.8199 272.793 12.2999C272.379 11.7799 271.806 11.5199 271.073 11.5199C270.353 11.5199 269.779 11.7799 269.353 12.2999C268.939 12.8199 268.733 13.6199 268.733 14.6999C268.733 15.7799 268.939 16.5799 269.353 17.0999C269.779 17.6199 270.353 17.8799 271.073 17.8799Z" fill="#BEBEBE"/>
<path d="M258.832 23.7599C257.859 23.7599 257.025 23.6199 256.332 23.3399C255.639 23.0599 255.059 22.6866 254.592 22.2199L255.972 20.3199C256.345 20.6532 256.752 20.9066 257.192 21.0799C257.645 21.2666 258.145 21.3599 258.692 21.3599C259.239 21.3599 259.725 21.2599 260.152 21.0599C260.592 20.8599 260.939 20.5532 261.192 20.1399C261.445 19.7399 261.572 19.2199 261.572 18.5799V16.6599L261.932 14.1399L261.572 11.8799V9.39989H264.232V18.5199C264.232 19.6932 263.999 20.6666 263.532 21.4399C263.065 22.2132 262.425 22.7932 261.612 23.1799C260.799 23.5666 259.872 23.7599 258.832 23.7599ZM258.512 19.1399C257.699 19.1399 256.979 18.9399 256.352 18.5399C255.739 18.1399 255.259 17.5666 254.912 16.8199C254.579 16.0599 254.412 15.1666 254.412 14.1399C254.412 13.1132 254.579 12.2266 254.912 11.4799C255.259 10.7332 255.739 10.1599 256.352 9.75989C256.979 9.34656 257.699 9.13989 258.512 9.13989C259.592 9.13989 260.459 9.50656 261.112 10.2399C261.765 10.9732 262.092 11.9999 262.092 13.3199V14.9599C262.092 16.2666 261.765 17.2932 261.112 18.0399C260.459 18.7732 259.592 19.1399 258.512 19.1399ZM259.452 16.7599C260.145 16.7599 260.699 16.5399 261.112 16.0999C261.539 15.6599 261.752 15.0066 261.752 14.1399C261.752 13.2732 261.539 12.6199 261.112 12.1799C260.699 11.7399 260.145 11.5199 259.452 11.5199C258.759 11.5199 258.199 11.7399 257.772 12.1799C257.359 12.6199 257.152 13.2732 257.152 14.1399C257.152 15.0066 257.359 15.6599 257.772 16.0999C258.199 16.5399 258.759 16.7599 259.452 16.7599Z" fill="#BEBEBE"/>
<path d="M249.931 19.9999V13.8799C249.931 13.0932 249.738 12.4999 249.351 12.0999C248.965 11.6999 248.485 11.4999 247.911 11.4999C247.338 11.4999 246.858 11.6999 246.471 12.0999C246.085 12.4999 245.891 13.0932 245.891 13.8799H245.311C245.311 12.8799 245.465 12.0266 245.771 11.3199C246.091 10.6132 246.525 10.0732 247.071 9.69989C247.631 9.32656 248.278 9.13989 249.011 9.13989C249.705 9.13989 250.318 9.31323 250.851 9.65989C251.398 9.99323 251.825 10.4732 252.131 11.0999C252.438 11.7132 252.591 12.4599 252.591 13.3399V19.9999H249.931ZM243.231 19.9999V9.39989H245.891V19.9999H243.231Z" fill="#BEBEBE"/>
<path d="M236.5 20.2599C235.527 20.2599 234.66 20.0266 233.9 19.5599C233.14 19.0932 232.547 18.4466 232.12 17.6199C231.707 16.7799 231.5 15.8066 231.5 14.6999C231.5 13.5666 231.714 12.5866 232.14 11.7599C232.567 10.9199 233.16 10.2732 233.92 9.81989C234.68 9.36656 235.547 9.13989 236.52 9.13989C237.494 9.13989 238.354 9.36656 239.1 9.81989C239.847 10.2732 240.427 10.9132 240.84 11.7399C241.267 12.5666 241.48 13.5532 241.48 14.6999C241.48 14.8332 241.474 14.9599 241.46 15.0799C241.46 15.1999 241.46 15.3332 241.46 15.4799H233.16V13.6199H239.5L238.76 14.6999C238.76 13.5132 238.56 12.6666 238.16 12.1599C237.774 11.6399 237.227 11.3799 236.52 11.3799C235.84 11.3799 235.287 11.6399 234.86 12.1599C234.447 12.6666 234.24 13.5132 234.24 14.6999C234.24 15.8066 234.454 16.6266 234.88 17.1599C235.307 17.6799 235.887 17.9399 236.62 17.9399C237.114 17.9399 237.54 17.8266 237.9 17.5999C238.26 17.3732 238.527 17.0199 238.7 16.5399L241.2 17.2599C240.92 18.1666 240.374 18.8932 239.56 19.4399C238.76 19.9866 237.74 20.2599 236.5 20.2599Z" fill="#BEBEBE"/>
<path d="M220.784 20V17.46H225.264C226.037 17.46 226.591 17.3133 226.924 17.02C227.257 16.7133 227.424 16.3 227.424 15.78C227.424 15.2466 227.257 14.8333 226.924 14.54C226.591 14.2333 226.037 14.08 225.264 14.08H220.784V12.4H225.684C227.164 12.4 228.297 12.7466 229.084 13.44C229.871 14.1333 230.264 15.02 230.264 16.1C230.264 17.2466 229.851 18.1866 229.024 18.92C228.197 19.64 227.024 20 225.504 20H220.784ZM219.544 20V6.19995H222.324V20H219.544ZM220.784 13.06V11.82H224.904C225.611 11.82 226.124 11.68 226.444 11.4C226.777 11.1066 226.944 10.7266 226.944 10.26C226.944 9.79328 226.777 9.42662 226.444 9.15995C226.124 8.87995 225.611 8.73995 224.904 8.73995H220.784V6.19995H225.164C226.137 6.19995 226.964 6.35328 227.644 6.65995C228.337 6.95328 228.864 7.37328 229.224 7.91995C229.584 8.45328 229.764 9.07328 229.764 9.77995C229.764 10.74 229.364 11.5266 228.564 12.14C227.777 12.7533 226.624 13.06 225.104 13.06H220.784Z" fill="#BEBEBE"/>
<path d="M209.26 20.2599C207.98 20.2599 206.953 20.0132 206.18 19.5199C205.42 19.0132 204.926 18.2532 204.7 17.2399L207.16 16.4599C207.333 17.0599 207.606 17.4932 207.98 17.7599C208.366 18.0266 208.853 18.1599 209.44 18.1599C209.986 18.1599 210.393 18.0799 210.66 17.9199C210.926 17.7466 211.06 17.4999 211.06 17.1799C211.06 16.8466 210.913 16.5866 210.62 16.3999C210.34 16.2132 209.973 16.0599 209.52 15.9399C209.066 15.8066 208.58 15.6732 208.06 15.5399C207.553 15.3932 207.073 15.2066 206.62 14.9799C206.166 14.7399 205.793 14.4199 205.5 14.0199C205.206 13.6066 205.06 13.0666 205.06 12.3999C205.06 11.4532 205.426 10.6732 206.16 10.0599C206.893 9.44656 207.926 9.13989 209.26 9.13989C210.42 9.13989 211.353 9.37989 212.06 9.85989C212.78 10.3399 213.286 11.0399 213.58 11.9599L211.18 12.7199C210.993 12.1866 210.733 11.8066 210.4 11.5799C210.08 11.3399 209.646 11.2199 209.1 11.2199C208.593 11.2199 208.22 11.3066 207.98 11.4799C207.74 11.6532 207.62 11.8599 207.62 12.0999C207.62 12.3799 207.766 12.6066 208.06 12.7799C208.353 12.9399 208.733 13.0799 209.2 13.1999C209.666 13.3066 210.16 13.4332 210.68 13.5799C211.2 13.7266 211.693 13.9266 212.16 14.1799C212.626 14.4332 213.006 14.7799 213.3 15.2199C213.593 15.6466 213.74 16.2132 213.74 16.9199C213.74 17.9066 213.346 18.7132 212.56 19.3399C211.786 19.9532 210.686 20.2599 209.26 20.2599Z" fill="#BEBEBE"/>
<path d="M200.702 19.9999C200.622 19.6532 200.555 19.2999 200.502 18.9399C200.462 18.5799 200.442 18.2266 200.442 17.8799V13.3999C200.442 12.6532 200.262 12.1266 199.902 11.8199C199.542 11.4999 199.108 11.3399 198.602 11.3399C198.122 11.3399 197.708 11.4732 197.362 11.7399C197.028 11.9932 196.795 12.4066 196.662 12.9799L194.122 12.3599C194.415 11.3066 194.968 10.5066 195.782 9.95989C196.595 9.41323 197.588 9.13989 198.762 9.13989C200.108 9.13989 201.168 9.49989 201.942 10.2199C202.715 10.9266 203.102 11.9066 203.102 13.1599V17.6399C203.102 18.4266 203.202 19.2132 203.402 19.9999H200.702ZM197.082 20.2599C196.082 20.2599 195.308 19.9866 194.762 19.4399C194.228 18.8932 193.962 18.1866 193.962 17.3199C193.962 16.5332 194.222 15.8399 194.742 15.2399C195.275 14.6399 196.102 14.2532 197.222 14.0799L201.142 13.4199V15.1799L198.162 15.7999C197.588 15.9199 197.188 16.0999 196.962 16.3399C196.735 16.5666 196.622 16.8199 196.622 17.0999C196.622 17.3799 196.715 17.6199 196.902 17.8199C197.102 18.0066 197.408 18.0999 197.822 18.0999C198.248 18.0999 198.662 18.0066 199.062 17.8199C199.462 17.6199 199.788 17.3332 200.042 16.9599C200.308 16.5732 200.442 16.1132 200.442 15.5799H201.122C201.122 16.5399 200.942 17.3732 200.582 18.0799C200.222 18.7732 199.735 19.3132 199.122 19.6999C198.522 20.0732 197.842 20.2599 197.082 20.2599Z" fill="#BEBEBE"/>
<path d="M189.52 20.0001V9.40007H192.18V20.0001H189.52ZM190.86 8.14007C190.447 8.14007 190.107 8.0134 189.84 7.76007C189.574 7.4934 189.44 7.14673 189.44 6.72007C189.44 6.2934 189.574 5.9534 189.84 5.70007C190.107 5.44673 190.447 5.32007 190.86 5.32007C191.26 5.32007 191.594 5.44673 191.86 5.70007C192.14 5.9534 192.28 6.2934 192.28 6.72007C192.28 7.14673 192.14 7.4934 191.86 7.76007C191.594 8.0134 191.26 8.14007 190.86 8.14007Z" fill="#BEBEBE"/>
<path d="M186.001 20.2599C184.881 20.2599 184.001 19.9466 183.361 19.3199C182.721 18.6799 182.401 17.7333 182.401 16.4799V7.19993L185.041 6.67993V16.1399C185.041 16.6999 185.181 17.1199 185.461 17.3999C185.755 17.6799 186.161 17.8199 186.681 17.8199C186.935 17.8199 187.168 17.7999 187.381 17.7599C187.595 17.7066 187.815 17.6533 188.041 17.5999V19.9999C187.735 20.0799 187.421 20.1399 187.101 20.1799C186.781 20.2333 186.415 20.2599 186.001 20.2599ZM181.021 11.6199V9.39993H187.941V11.6199H181.021Z" fill="#BEBEBE"/>
<path d="M177.303 19.9999C177.223 19.6532 177.157 19.2999 177.103 18.9399C177.063 18.5799 177.043 18.2266 177.043 17.8799V13.3999C177.043 12.6532 176.863 12.1266 176.503 11.8199C176.143 11.4999 175.71 11.3399 175.203 11.3399C174.723 11.3399 174.31 11.4732 173.963 11.7399C173.63 11.9932 173.397 12.4066 173.263 12.9799L170.723 12.3599C171.017 11.3066 171.57 10.5066 172.383 9.95989C173.197 9.41323 174.19 9.13989 175.363 9.13989C176.71 9.13989 177.77 9.49989 178.543 10.2199C179.317 10.9266 179.703 11.9066 179.703 13.1599V17.6399C179.703 18.4266 179.803 19.2132 180.003 19.9999H177.303ZM173.683 20.2599C172.683 20.2599 171.91 19.9866 171.363 19.4399C170.83 18.8932 170.563 18.1866 170.563 17.3199C170.563 16.5332 170.823 15.8399 171.343 15.2399C171.877 14.6399 172.703 14.2532 173.823 14.0799L177.743 13.4199V15.1799L174.763 15.7999C174.19 15.9199 173.79 16.0999 173.563 16.3399C173.337 16.5666 173.223 16.8199 173.223 17.0999C173.223 17.3799 173.317 17.6199 173.503 17.8199C173.703 18.0066 174.01 18.0999 174.423 18.0999C174.85 18.0999 175.263 18.0066 175.663 17.8199C176.063 17.6199 176.39 17.3332 176.643 16.9599C176.91 16.5732 177.043 16.1132 177.043 15.5799H177.723C177.723 16.5399 177.543 17.3732 177.183 18.0799C176.823 18.7732 176.337 19.3132 175.723 19.6999C175.123 20.0732 174.443 20.2599 173.683 20.2599Z" fill="#BEBEBE"/>
<path d="M159.167 20L155.587 6.19995H158.307L161.747 20H159.167ZM153.587 20V6.19995H156.227V20H153.587ZM160.567 20L163.827 6.19995H166.447L163.007 20H160.567ZM165.847 20V6.19995H168.607V20H165.847Z" fill="#BEBEBE"/>
<path d="M140.756 23.7599C140.369 23.7599 140.009 23.7332 139.676 23.6799C139.356 23.6399 139.036 23.5799 138.716 23.4999V21.1199C138.982 21.1866 139.269 21.2466 139.576 21.2999C139.882 21.3666 140.196 21.3999 140.516 21.3999C141.129 21.3999 141.602 21.2866 141.936 21.0599C142.282 20.8466 142.522 20.4932 142.656 19.9999L145.456 9.3999H148.236L145.116 19.9999C144.822 20.9999 144.462 21.7732 144.036 22.3199C143.622 22.8666 143.142 23.2399 142.596 23.4399C142.049 23.6532 141.436 23.7599 140.756 23.7599ZM140.976 19.9999L137.856 9.3999H140.696L143.596 19.9999H140.976Z" fill="#BEBEBE"/>
<path d="M132.936 20.26C131.856 20.26 130.982 19.8466 130.316 19.02C129.662 18.1933 129.336 17.0266 129.336 15.52V13.88C129.336 12.36 129.662 11.1933 130.316 10.38C130.982 9.55328 131.856 9.13995 132.936 9.13995C133.762 9.13995 134.482 9.36662 135.096 9.81995C135.709 10.26 136.189 10.8933 136.536 11.72C136.882 12.5466 137.056 13.54 137.056 14.7C137.056 15.86 136.882 16.8533 136.536 17.68C136.189 18.5066 135.709 19.1466 135.096 19.6C134.482 20.04 133.762 20.26 132.936 20.26ZM127.216 20V5.69995H129.876V12.18L129.516 14.7L129.876 17.32V20H127.216ZM131.996 17.88C132.689 17.88 133.249 17.62 133.676 17.1C134.102 16.58 134.316 15.78 134.316 14.7C134.316 13.62 134.102 12.82 133.676 12.3C133.249 11.78 132.689 11.52 131.996 11.52C131.316 11.52 130.762 11.78 130.336 12.3C129.909 12.82 129.696 13.62 129.696 14.7C129.696 15.78 129.909 16.58 130.336 17.1C130.762 17.62 131.316 17.88 131.996 17.88Z" fill="#BEBEBE"/>
<path d="M119.79 20.2599C118.67 20.2599 117.79 19.9466 117.15 19.3199C116.51 18.6799 116.19 17.7333 116.19 16.4799V7.19993L118.83 6.67993V16.1399C118.83 16.6999 118.97 17.1199 119.25 17.3999C119.544 17.6799 119.95 17.8199 120.47 17.8199C120.724 17.8199 120.957 17.7999 121.17 17.7599C121.384 17.7066 121.604 17.6533 121.83 17.5999V19.9999C121.524 20.0799 121.21 20.1399 120.89 20.1799C120.57 20.2333 120.204 20.2599 119.79 20.2599ZM114.81 11.6199V9.39993H121.73V11.6199H114.81Z" fill="#BEBEBE"/>
<path d="M110.83 20V13.88C110.83 13.0933 110.636 12.5 110.25 12.1C109.863 11.7 109.383 11.5 108.81 11.5C108.236 11.5 107.756 11.7 107.37 12.1C106.983 12.5 106.79 13.0933 106.79 13.88H106.21C106.21 12.88 106.363 12.0266 106.67 11.32C106.99 10.6133 107.423 10.0733 107.97 9.69995C108.53 9.32662 109.176 9.13995 109.91 9.13995C110.603 9.13995 111.216 9.31328 111.75 9.65995C112.296 9.99329 112.723 10.4733 113.03 11.1C113.336 11.7133 113.49 12.46 113.49 13.34V20H110.83ZM104.13 20V5.69995H106.79V20H104.13Z" fill="#BEBEBE"/>
<path d="M96.4491 23.7599C95.4757 23.7599 94.6424 23.6199 93.9491 23.3399C93.2557 23.0599 92.6758 22.6866 92.2091 22.2199L93.5891 20.3199C93.9624 20.6532 94.3691 20.9066 94.8091 21.0799C95.2624 21.2666 95.7624 21.3599 96.3091 21.3599C96.8557 21.3599 97.3424 21.2599 97.7691 21.0599C98.2091 20.8599 98.5557 20.5532 98.8091 20.1399C99.0624 19.7399 99.1891 19.2199 99.1891 18.5799V16.6599L99.5491 14.1399L99.1891 11.8799V9.39989H101.849V18.5199C101.849 19.6932 101.616 20.6666 101.149 21.4399C100.682 22.2132 100.042 22.7932 99.2291 23.1799C98.4157 23.5666 97.4891 23.7599 96.4491 23.7599ZM96.1291 19.1399C95.3157 19.1399 94.5957 18.9399 93.9691 18.5399C93.3557 18.1399 92.8757 17.5666 92.5291 16.8199C92.1957 16.0599 92.0291 15.1666 92.0291 14.1399C92.0291 13.1132 92.1957 12.2266 92.5291 11.4799C92.8757 10.7332 93.3557 10.1599 93.9691 9.75989C94.5957 9.34656 95.3157 9.13989 96.1291 9.13989C97.2091 9.13989 98.0757 9.50656 98.7291 10.2399C99.3824 10.9732 99.7091 11.9999 99.7091 13.3199V14.9599C99.7091 16.2666 99.3824 17.2932 98.7291 18.0399C98.0757 18.7732 97.2091 19.1399 96.1291 19.1399ZM97.0691 16.7599C97.7624 16.7599 98.3157 16.5399 98.7291 16.0999C99.1557 15.6599 99.3691 15.0066 99.3691 14.1399C99.3691 13.2732 99.1557 12.6199 98.7291 12.1799C98.3157 11.7399 97.7624 11.5199 97.0691 11.5199C96.3758 11.5199 95.8158 11.7399 95.3891 12.1799C94.9758 12.6199 94.7691 13.2732 94.7691 14.1399C94.7691 15.0066 94.9758 15.6599 95.3891 16.0999C95.8158 16.5399 96.3758 16.7599 97.0691 16.7599Z" fill="#BEBEBE"/>
<path d="M87.5477 20.0001V9.40007H90.2077V20.0001H87.5477ZM88.8877 8.14007C88.4743 8.14007 88.1343 8.0134 87.8677 7.76007C87.601 7.4934 87.4677 7.14673 87.4677 6.72007C87.4677 6.2934 87.601 5.9534 87.8677 5.70007C88.1343 5.44673 88.4743 5.32007 88.8877 5.32007C89.2877 5.32007 89.621 5.44673 89.8877 5.70007C90.1677 5.9534 90.3077 6.2934 90.3077 6.72007C90.3077 7.14673 90.1677 7.4934 89.8877 7.76007C89.621 8.0134 89.2877 8.14007 88.8877 8.14007Z" fill="#BEBEBE"/>
<path d="M80.1649 19.9999V9.39989H82.8249V19.9999H80.1649ZM82.3449 14.9599C82.3449 13.7866 82.4782 12.7666 82.7449 11.8999C83.0115 11.0199 83.4249 10.3399 83.9849 9.85989C84.5449 9.37989 85.2582 9.13989 86.1249 9.13989V12.1599H84.9649C84.2982 12.1599 83.7715 12.3332 83.3849 12.6799C83.0115 13.0132 82.8249 13.5999 82.8249 14.4399L82.3449 14.9599Z" fill="#BEBEBE"/>
<path d="M71.4199 23.7599C71.0332 23.7599 70.6732 23.7332 70.3399 23.6799C70.0199 23.6399 69.6999 23.5799 69.3799 23.4999V21.1199C69.6465 21.1866 69.9332 21.2466 70.2399 21.2999C70.5465 21.3666 70.8599 21.3999 71.1799 21.3999C71.7932 21.3999 72.2665 21.2866 72.5999 21.0599C72.9465 20.8466 73.1865 20.4932 73.3199 19.9999L76.1199 9.3999H78.8999L75.7799 19.9999C75.4865 20.9999 75.1265 21.7732 74.6999 22.3199C74.2865 22.8666 73.8065 23.2399 73.2599 23.4399C72.7132 23.6532 72.0999 23.7599 71.4199 23.7599ZM71.6399 19.9999L68.5199 9.3999H71.3599L74.2599 19.9999H71.6399Z" fill="#BEBEBE"/>
<path d="M63.5997 20.2599C62.5197 20.2599 61.6464 19.8466 60.9797 19.0199C60.3264 18.1932 59.9997 17.0266 59.9997 15.5199V13.8799C59.9997 12.3599 60.3264 11.1932 60.9797 10.3799C61.6464 9.55323 62.5197 9.13989 63.5997 9.13989C64.4264 9.13989 65.1464 9.36656 65.7597 9.81989C66.373 10.2599 66.853 10.8932 67.1997 11.7199C67.5464 12.5466 67.7197 13.5399 67.7197 14.6999C67.7197 15.8599 67.5464 16.8532 67.1997 17.6799C66.853 18.5066 66.373 19.1466 65.7597 19.5999C65.1464 20.0399 64.4264 20.2599 63.5997 20.2599ZM57.8797 23.4999V9.39989H60.5397V12.0799L60.1797 14.6999L60.5397 17.2199V23.4999H57.8797ZM62.6597 17.8799C63.353 17.8799 63.9131 17.6199 64.3397 17.0999C64.7664 16.5799 64.9797 15.7799 64.9797 14.6999C64.9797 13.6199 64.7664 12.8199 64.3397 12.2999C63.9131 11.7799 63.353 11.5199 62.6597 11.5199C61.9797 11.5199 61.4264 11.7799 60.9997 12.2999C60.573 12.8199 60.3597 13.6199 60.3597 14.6999C60.3597 15.7799 60.573 16.5799 60.9997 17.0999C61.4264 17.6199 61.9797 17.8799 62.6597 17.8799Z" fill="#BEBEBE"/>
<path d="M51.0139 20.2599C50.0273 20.2599 49.1473 20.0266 48.3739 19.5599C47.6139 19.0932 47.0139 18.4466 46.5739 17.6199C46.1473 16.7932 45.9339 15.8199 45.9339 14.6999C45.9339 13.5799 46.1473 12.6066 46.5739 11.7799C47.0139 10.9399 47.6139 10.2932 48.3739 9.83989C49.1473 9.37323 50.0273 9.13989 51.0139 9.13989C52.0273 9.13989 52.9139 9.37323 53.6739 9.83989C54.4339 10.2932 55.0273 10.9399 55.4539 11.7799C55.8939 12.6066 56.1139 13.5799 56.1139 14.6999C56.1139 15.8199 55.8939 16.7932 55.4539 17.6199C55.0273 18.4466 54.4339 19.0932 53.6739 19.5599C52.9139 20.0266 52.0273 20.2599 51.0139 20.2599ZM51.0139 17.8799C51.7473 17.8799 52.3206 17.6199 52.7339 17.0999C53.1606 16.5799 53.3739 15.7799 53.3739 14.6999C53.3739 13.6199 53.1606 12.8199 52.7339 12.2999C52.3206 11.7799 51.7473 11.5199 51.0139 11.5199C50.2939 11.5199 49.7206 11.7799 49.2939 12.2999C48.8806 12.8199 48.6739 13.6199 48.6739 14.6999C48.6739 15.7799 48.8806 16.5799 49.2939 17.0999C49.7206 17.6199 50.2939 17.8799 51.0139 17.8799Z" fill="#BEBEBE"/>
<path d="M38.7602 20.2599C37.5202 20.2599 36.4268 19.9666 35.4802 19.3799C34.5468 18.7933 33.8135 17.9666 33.2802 16.8999C32.7602 15.8199 32.5002 14.5533 32.5002 13.0999C32.5002 11.6333 32.7602 10.3666 33.2802 9.29994C33.8135 8.23327 34.5468 7.40661 35.4802 6.81994C36.4268 6.23327 37.5202 5.93994 38.7602 5.93994C39.7602 5.93994 40.6602 6.12661 41.4602 6.49994C42.2735 6.87328 42.9535 7.40661 43.5002 8.09994C44.0469 8.77994 44.4202 9.59994 44.6202 10.5599L41.8802 11.3199C41.7202 10.4266 41.3669 9.73994 40.8202 9.25994C40.2869 8.77994 39.5935 8.53994 38.7402 8.53994C37.7135 8.53994 36.8869 8.93994 36.2602 9.73994C35.6335 10.5399 35.3202 11.6599 35.3202 13.0999C35.3202 14.5266 35.6335 15.6466 36.2602 16.4599C36.8869 17.2599 37.7135 17.6599 38.7402 17.6599C39.6202 17.6599 40.3335 17.4199 40.8802 16.9399C41.4269 16.4466 41.7802 15.7466 41.9402 14.8399L44.6802 15.5999C44.4669 16.5733 44.0869 17.4066 43.5402 18.0999C42.9935 18.7933 42.3135 19.3266 41.5002 19.6999C40.7002 20.0733 39.7868 20.2599 38.7602 20.2599Z" fill="#BEBEBE"/>
</svg>
