<svg width="88" height="201" viewBox="0 0 88 201" fill="none" xmlns="http://www.w3.org/2000/svg">
<path fill-rule="evenodd" clip-rule="evenodd" d="M46.5532 4.16425C64.0187 7.73894 76.2014 21.4284 80.6954 38.1235C84.7265 53.0986 82.5192 70.3501 72.4257 84.5466C63.9916 76.0275 52.8229 69.8854 40.9843 67.2856L40.9842 67.2856C31.3723 65.1756 19.6988 68.1218 11.4435 74.289C3.11922 80.5076 -2.05932 90.3126 2.31256 101.773L2.3126 101.773C4.95604 108.701 10.6414 112.706 17.2214 114.429C23.7623 116.141 31.2871 115.642 38.0237 113.557C50.4637 109.707 62.5837 101.667 71.3972 91.7401C71.8319 91.2506 72.2565 90.7565 72.6711 90.258C75.1319 93.1614 77.2615 96.3006 78.9834 99.629L78.9834 99.6291C86.5362 114.227 83.6642 132.308 75.3664 150.04C67.588 166.661 55.1966 182.618 42.9828 194.393L43.9004 178.745L40.2236 178.532L38.9318 200.599L61.0354 200.282L60.9859 196.6L45.7684 196.819C58.1742 184.809 70.7486 168.592 78.7002 151.6C87.1866 133.465 90.5843 114.042 82.2526 97.9377C80.2833 94.1309 77.8264 90.5655 74.9808 87.2972C86.1323 72.0344 88.6046 53.3449 84.2497 37.1667C79.4634 19.3857 66.3651 4.4621 47.2912 0.558199L46.5532 4.16425ZM40.1948 70.8807C51.557 73.3759 62.2231 79.3272 70.1704 87.5046C69.6774 88.1086 69.1689 88.706 68.6448 89.2963L70.021 90.5182L68.6448 89.2963C60.249 98.7525 48.6933 106.401 36.9354 110.041L36.9352 110.041C30.7211 111.965 23.9065 112.374 18.1537 110.868C12.4398 109.372 7.8768 106.031 5.75162 100.461C2.13759 90.9873 6.20953 82.7935 13.6464 77.2378C21.1521 71.6307 31.7502 69.027 40.1948 70.8807Z" fill="#E8E8E8"/>
</svg>
