<svg width="521" height="204" viewBox="0 0 521 204" fill="none" xmlns="http://www.w3.org/2000/svg">
<path d="M0.41 39V1.05H8.935V39H0.41ZM4.15 39V31.025H25.325V39H4.15ZM50.8115 39.77C47.2548 39.77 44.1198 39 41.4065 37.46C38.7298 35.8833 36.6215 33.6283 35.0815 30.695C33.5782 27.725 32.8265 24.1683 32.8265 20.025C32.8265 15.8817 33.5782 12.3433 35.0815 9.41C36.6215 6.44 38.7298 4.185 41.4065 2.645C44.1198 1.06833 47.2548 0.279997 50.8115 0.279997C54.3682 0.279997 57.4848 1.06833 60.1615 2.645C62.8748 4.185 64.9832 6.44 66.4865 9.41C68.0265 12.3433 68.7965 15.8817 68.7965 20.025C68.7965 24.1683 68.0265 27.725 66.4865 30.695C64.9832 33.6283 62.8748 35.8833 60.1615 37.46C57.4848 39 54.3682 39.77 50.8115 39.77ZM50.8115 31.74C53.6348 31.74 55.8898 30.7683 57.5765 28.825C59.2632 26.845 60.1065 23.9117 60.1065 20.025C60.1065 16.1383 59.2632 13.2233 57.5765 11.28C55.8898 9.3 53.6348 8.31 50.8115 8.31C47.9882 8.31 45.7332 9.3 44.0465 11.28C42.3598 13.2233 41.5165 16.1383 41.5165 20.025C41.5165 23.9117 42.3598 26.845 44.0465 28.825C45.7332 30.7683 47.9882 31.74 50.8115 31.74ZM459.919 39L446.719 1.05H455.409L468.609 39H459.919ZM441.274 39V1.05H449.359V39H441.274ZM465.969 39V1.05H474.054V39H465.969ZM502.364 39.77C498.807 39.77 495.672 39 492.959 37.46C490.282 35.8833 488.174 33.6283 486.634 30.695C485.13 27.725 484.379 24.1683 484.379 20.025C484.379 15.8817 485.13 12.3433 486.634 9.41C488.174 6.44 490.282 4.185 492.959 2.645C495.672 1.06833 498.807 0.279997 502.364 0.279997C505.92 0.279997 509.037 1.06833 511.714 2.645C514.427 4.185 516.535 6.44 518.039 9.41C519.579 12.3433 520.349 15.8817 520.349 20.025C520.349 24.1683 519.579 27.725 518.039 30.695C516.535 33.6283 514.427 35.8833 511.714 37.46C509.037 39 505.92 39.77 502.364 39.77ZM502.364 31.74C505.187 31.74 507.442 30.7683 509.129 28.825C510.815 26.845 511.659 23.9117 511.659 20.025C511.659 16.1383 510.815 13.2233 509.129 11.28C507.442 9.3 505.187 8.31 502.364 8.31C499.54 8.31 497.285 9.3 495.599 11.28C493.912 13.2233 493.069 16.1383 493.069 20.025C493.069 23.9117 493.912 26.845 495.599 28.825C497.285 30.7683 499.54 31.74 502.364 31.74ZM0.41 121V83.05H8.935V121H0.41ZM4.15 121V113.025H29.01V121H4.15ZM4.15 105.49V97.955H26.425V105.49H4.15ZM4.15 91.025V83.05H28.79V91.025H4.15ZM60.974 121L36.499 83.05H46.399L70.874 121H60.974ZM35.949 121L49.369 100.32L52.779 95.92L60.699 83.05H70.324L57.454 102.85L54.044 107.195L45.574 121H35.949ZM79.2211 121V83.05H87.7461V121H79.2211ZM113.502 121.77C109.506 121.77 106.151 120.853 103.437 119.02C100.724 117.15 98.7808 114.327 97.6075 110.55L105.912 107.745C106.646 109.982 107.691 111.613 109.047 112.64C110.441 113.63 112.091 114.125 113.997 114.125C116.014 114.125 117.481 113.795 118.397 113.135C119.314 112.438 119.772 111.577 119.772 110.55C119.772 109.523 119.387 108.698 118.617 108.075C117.884 107.415 116.876 106.883 115.592 106.48C114.346 106.04 112.971 105.618 111.467 105.215C110.001 104.812 108.516 104.353 107.012 103.84C105.546 103.327 104.171 102.648 102.887 101.805C101.641 100.962 100.632 99.88 99.8625 98.56C99.1291 97.24 98.7625 95.59 98.7625 93.61C98.7625 91.3733 99.3308 89.4117 100.467 87.725C101.641 86.0383 103.309 84.7183 105.472 83.765C107.672 82.775 110.294 82.28 113.337 82.28C116.931 82.28 120.011 83.16 122.577 84.92C125.181 86.6433 127.014 89.1917 128.077 92.565L120.102 95.37C119.442 93.4267 118.471 92.0333 117.187 91.19C115.904 90.31 114.364 89.87 112.567 89.87C110.661 89.87 109.304 90.2 108.497 90.86C107.727 91.52 107.342 92.2717 107.342 93.115C107.342 94.0317 107.727 94.765 108.497 95.315C109.267 95.865 110.276 96.3417 111.522 96.745C112.769 97.1483 114.144 97.5517 115.647 97.955C117.187 98.3217 118.709 98.7983 120.212 99.385C121.716 99.935 123.091 100.668 124.337 101.585C125.584 102.465 126.592 103.602 127.362 104.995C128.132 106.388 128.517 108.13 128.517 110.22C128.517 112.493 127.912 114.51 126.702 116.27C125.492 117.993 123.769 119.35 121.532 120.34C119.296 121.293 116.619 121.77 113.502 121.77ZM146.796 121V83.05H155.266V121H146.796ZM135.796 91.025V83.05H166.266V91.025H135.796ZM175.712 121V83.05H184.237V121H175.712ZM179.452 121V113.025H204.312V121H179.452ZM179.452 105.49V97.955H201.727V105.49H179.452ZM179.452 91.025V83.05H204.092V91.025H179.452ZM243.571 121.77C239.574 121.77 236.219 120.853 233.506 119.02C230.793 117.15 228.849 114.327 227.676 110.55L235.981 107.745C236.714 109.982 237.759 111.613 239.116 112.64C240.509 113.63 242.159 114.125 244.066 114.125C246.083 114.125 247.549 113.795 248.466 113.135C249.383 112.438 249.841 111.577 249.841 110.55C249.841 109.523 249.456 108.698 248.686 108.075C247.953 107.415 246.944 106.883 245.661 106.48C244.414 106.04 243.039 105.618 241.536 105.215C240.069 104.812 238.584 104.353 237.081 103.84C235.614 103.327 234.239 102.648 232.956 101.805C231.709 100.962 230.701 99.88 229.931 98.56C229.198 97.24 228.831 95.59 228.831 93.61C228.831 91.3733 229.399 89.4117 230.536 87.725C231.709 86.0383 233.378 84.7183 235.541 83.765C237.741 82.775 240.363 82.28 243.406 82.28C246.999 82.28 250.079 83.16 252.646 84.92C255.249 86.6433 257.083 89.1917 258.146 92.565L250.171 95.37C249.511 93.4267 248.539 92.0333 247.256 91.19C245.973 90.31 244.433 89.87 242.636 89.87C240.729 89.87 239.373 90.2 238.566 90.86C237.796 91.52 237.411 92.2717 237.411 93.115C237.411 94.0317 237.796 94.765 238.566 95.315C239.336 95.865 240.344 96.3417 241.591 96.745C242.838 97.1483 244.213 97.5517 245.716 97.955C247.256 98.3217 248.778 98.7983 250.281 99.385C251.784 99.935 253.159 100.668 254.406 101.585C255.653 102.465 256.661 103.602 257.431 104.995C258.201 106.388 258.586 108.13 258.586 110.22C258.586 112.493 257.981 114.51 256.771 116.27C255.561 117.993 253.838 119.35 251.601 120.34C249.364 121.293 246.688 121.77 243.571 121.77ZM268.711 121V83.05H277.236V121H268.711ZM303.963 121V83.05H312.488V121H303.963ZM307.703 121V113.025H328.878V121H307.703ZM354.364 121.77C350.808 121.77 347.673 121 344.959 119.46C342.283 117.883 340.174 115.628 338.634 112.695C337.131 109.725 336.379 106.168 336.379 102.025C336.379 97.8817 337.131 94.3433 338.634 91.41C340.174 88.44 342.283 86.185 344.959 84.645C347.673 83.0683 350.808 82.28 354.364 82.28C357.921 82.28 361.038 83.0683 363.714 84.645C366.428 86.185 368.536 88.44 370.039 91.41C371.579 94.3433 372.349 97.8817 372.349 102.025C372.349 106.168 371.579 109.725 370.039 112.695C368.536 115.628 366.428 117.883 363.714 119.46C361.038 121 357.921 121.77 354.364 121.77ZM354.364 113.74C357.188 113.74 359.443 112.768 361.129 110.825C362.816 108.845 363.659 105.912 363.659 102.025C363.659 98.1383 362.816 95.2233 361.129 93.28C359.443 91.3 357.188 90.31 354.364 90.31C351.541 90.31 349.286 91.3 347.599 93.28C345.913 95.2233 345.069 98.1383 345.069 102.025C345.069 105.912 345.913 108.845 347.599 110.825C349.286 112.768 351.541 113.74 354.364 113.74Z" fill="#E8E8E8"/>
<path d="M94.0539 39V1.05H102.579V39H94.0539ZM129.325 39L120.8 1.05H129.27L137.135 39H129.325ZM114.365 39V1.05H122.45V39H114.365ZM133.945 39L141.7 1.05H149.84L141.48 39H133.945ZM148.19 39V1.05H156.715V39H148.19ZM172.201 27.285V19.31H183.311C185.694 19.31 187.399 18.87 188.426 17.99C189.489 17.11 190.021 15.8267 190.021 14.14C190.021 12.49 189.489 11.225 188.426 10.345C187.399 9.465 185.694 9.025 183.311 9.025H172.201V1.05H183.806C187.069 1.05 189.801 1.6 192.001 2.7C194.237 3.76333 195.906 5.285 197.006 7.265C198.142 9.20833 198.711 11.5 198.711 14.14C198.711 16.78 198.142 19.09 197.006 21.07C195.906 23.05 194.237 24.59 192.001 25.69C189.801 26.7533 187.069 27.285 183.806 27.285H172.201ZM168.461 39V1.05H176.986V39H168.461ZM224.717 39.77C221.16 39.77 218.025 39 215.312 37.46C212.635 35.8833 210.527 33.6283 208.987 30.695C207.483 27.725 206.732 24.1683 206.732 20.025C206.732 15.8817 207.483 12.3433 208.987 9.41C210.527 6.44 212.635 4.185 215.312 2.645C218.025 1.06833 221.16 0.279997 224.717 0.279997C228.273 0.279997 231.39 1.06833 234.067 2.645C236.78 4.185 238.888 6.44 240.392 9.41C241.932 12.3433 242.702 15.8817 242.702 20.025C242.702 24.1683 241.932 27.725 240.392 30.695C238.888 33.6283 236.78 35.8833 234.067 37.46C231.39 39 228.273 39.77 224.717 39.77ZM224.717 31.74C227.54 31.74 229.795 30.7683 231.482 28.825C233.168 26.845 234.012 23.9117 234.012 20.025C234.012 16.1383 233.168 13.2233 231.482 11.28C229.795 9.3 227.54 8.31 224.717 8.31C221.893 8.31 219.638 9.3 217.952 11.28C216.265 13.2233 215.422 16.1383 215.422 20.025C215.422 23.9117 216.265 26.845 217.952 28.825C219.638 30.7683 221.893 31.74 224.717 31.74ZM266.989 39.77C262.992 39.77 259.637 38.8533 256.924 37.02C254.211 35.15 252.267 32.3267 251.094 28.55L259.399 25.745C260.132 27.9817 261.177 29.6133 262.534 30.64C263.927 31.63 265.577 32.125 267.484 32.125C269.501 32.125 270.967 31.795 271.884 31.135C272.801 30.4383 273.259 29.5767 273.259 28.55C273.259 27.5233 272.874 26.6983 272.104 26.075C271.371 25.415 270.362 24.8833 269.079 24.48C267.832 24.04 266.457 23.6183 264.954 23.215C263.487 22.8117 262.002 22.3533 260.499 21.84C259.032 21.3267 257.657 20.6483 256.374 19.805C255.127 18.9617 254.119 17.88 253.349 16.56C252.616 15.24 252.249 13.59 252.249 11.61C252.249 9.37333 252.817 7.41167 253.954 5.725C255.127 4.03833 256.796 2.71833 258.959 1.765C261.159 0.774997 263.781 0.279997 266.824 0.279997C270.417 0.279997 273.497 1.16 276.064 2.92C278.667 4.64333 280.501 7.19167 281.564 10.565L273.589 13.37C272.929 11.4267 271.957 10.0333 270.674 9.19C269.391 8.31 267.851 7.87 266.054 7.87C264.147 7.87 262.791 8.2 261.984 8.86C261.214 9.52 260.829 10.2717 260.829 11.115C260.829 12.0317 261.214 12.765 261.984 13.315C262.754 13.865 263.762 14.3417 265.009 14.745C266.256 15.1483 267.631 15.5517 269.134 15.955C270.674 16.3217 272.196 16.7983 273.699 17.385C275.202 17.935 276.577 18.6683 277.824 19.585C279.071 20.465 280.079 21.6017 280.849 22.995C281.619 24.3883 282.004 26.13 282.004 28.22C282.004 30.4933 281.399 32.51 280.189 34.27C278.979 35.9933 277.256 37.35 275.019 38.34C272.782 39.2933 270.106 39.77 266.989 39.77ZM292.129 39V1.05H300.654V39H292.129ZM316.18 39V31.08H328.83C330.59 31.08 331.855 30.7317 332.625 30.035C333.395 29.3383 333.78 28.3667 333.78 27.12C333.78 25.91 333.395 24.9567 332.625 24.26C331.855 23.5633 330.59 23.215 328.83 23.215H316.18V18.1H330.315C334.275 18.1 337.282 19.0533 339.335 20.96C341.425 22.8667 342.47 25.2867 342.47 28.22C342.47 31.3733 341.352 33.9583 339.115 35.975C336.879 37.9917 333.634 39 329.38 39H316.18ZM312.44 39V1.05H320.965V39H312.44ZM316.18 19.805V16.23H327.51C329.234 16.23 330.48 15.9183 331.25 15.295C332.02 14.635 332.405 13.7367 332.405 12.6C332.405 11.4633 332.02 10.5833 331.25 9.96C330.48 9.3 329.234 8.97 327.51 8.97H316.18V1.05H328.115C330.939 1.05 333.304 1.47166 335.21 2.315C337.154 3.12166 338.62 4.25833 339.61 5.725C340.6 7.19167 341.095 8.915 341.095 10.895C341.095 13.4983 339.977 15.6433 337.74 17.33C335.54 18.98 332.314 19.805 328.06 19.805H316.18ZM352.464 39V1.05H360.989V39H352.464ZM356.204 39V31.025H377.379V39H356.204ZM387.384 39V1.05H395.909V39H387.384ZM391.124 39V31.025H415.984V39H391.124ZM391.124 23.49V15.955H413.399V23.49H391.124ZM391.124 9.025V1.05H415.764V9.025H391.124ZM0.41 203V165.05H8.935V203H0.41ZM39.3663 203L26.1663 165.05H34.8563L48.0563 203H39.3663ZM20.7213 203V165.05H28.8063V203H20.7213ZM45.4163 203V165.05H53.5013V203H45.4163ZM73.9463 203V165.05H82.4163V203H73.9463ZM62.9463 173.025V165.05H93.4163V173.025H62.9463ZM102.863 203V165.05H111.388V203H102.863ZM106.603 203V195.025H131.463V203H106.603ZM106.603 187.49V179.955H128.878V187.49H106.603ZM106.603 173.025V165.05H131.243V173.025H106.603ZM160.457 203L147.257 165.05H155.947L169.147 203H160.457ZM141.812 203V165.05H149.897V203H141.812ZM166.507 203V165.05H174.592V203H166.507ZM195.037 203V165.05H203.507V203H195.037ZM184.037 173.025V165.05H214.507V173.025H184.037ZM245.799 203L234.249 165.05H242.774L254.929 203H245.799ZM217.804 203L229.959 165.05H237.989L226.769 203H217.804ZM226.219 194.31V186.775H246.459V194.31H226.219ZM277.248 203.77C273.251 203.77 269.896 202.853 267.183 201.02C264.469 199.15 262.526 196.327 261.353 192.55L269.658 189.745C270.391 191.982 271.436 193.613 272.793 194.64C274.186 195.63 275.836 196.125 277.743 196.125C279.759 196.125 281.226 195.795 282.143 195.135C283.059 194.438 283.518 193.577 283.518 192.55C283.518 191.523 283.133 190.698 282.363 190.075C281.629 189.415 280.621 188.883 279.338 188.48C278.091 188.04 276.716 187.618 275.213 187.215C273.746 186.812 272.261 186.353 270.758 185.84C269.291 185.327 267.916 184.648 266.633 183.805C265.386 182.962 264.378 181.88 263.608 180.56C262.874 179.24 262.508 177.59 262.508 175.61C262.508 173.373 263.076 171.412 264.213 169.725C265.386 168.038 267.054 166.718 269.218 165.765C271.418 164.775 274.039 164.28 277.083 164.28C280.676 164.28 283.756 165.16 286.323 166.92C288.926 168.643 290.759 171.192 291.823 174.565L283.848 177.37C283.188 175.427 282.216 174.033 280.933 173.19C279.649 172.31 278.109 171.87 276.313 171.87C274.406 171.87 273.049 172.2 272.243 172.86C271.473 173.52 271.088 174.272 271.088 175.115C271.088 176.032 271.473 176.765 272.243 177.315C273.013 177.865 274.021 178.342 275.268 178.745C276.514 179.148 277.889 179.552 279.393 179.955C280.933 180.322 282.454 180.798 283.958 181.385C285.461 181.935 286.836 182.668 288.083 183.585C289.329 184.465 290.338 185.602 291.108 186.995C291.878 188.388 292.263 190.13 292.263 192.22C292.263 194.493 291.658 196.51 290.448 198.27C289.238 199.993 287.514 201.35 285.278 202.34C283.041 203.293 280.364 203.77 277.248 203.77ZM305.798 203.77C304.441 203.77 303.286 203.33 302.333 202.45C301.416 201.57 300.958 200.415 300.958 198.985C300.958 197.518 301.416 196.345 302.333 195.465C303.286 194.548 304.441 194.09 305.798 194.09C307.191 194.09 308.365 194.548 309.318 195.465C310.271 196.345 310.748 197.518 310.748 198.985C310.748 200.415 310.271 201.57 309.318 202.45C308.365 203.33 307.191 203.77 305.798 203.77Z" fill="url(#paint0_linear_12_6)"/>
<defs>
<linearGradient id="paint0_linear_12_6" x1="-3" y1="102" x2="523" y2="102" gradientUnits="userSpaceOnUse">
<stop stop-color="#00FFDA"/>
<stop offset="1" stop-color="#3C3DF7"/>
</linearGradient>
</defs>
</svg>
