<svg width="52" height="52" viewBox="0 0 52 52" fill="none" xmlns="http://www.w3.org/2000/svg">
<path d="M26.0674 51.1683C22.572 51.1683 19.2871 50.505 16.2129 49.1785C13.1386 47.8519 10.4644 46.0515 8.19027 43.7774C5.91615 41.5033 4.1158 38.8291 2.78923 35.7548C1.46266 32.6806 0.799377 29.3957 0.799377 25.9003C0.799377 22.4049 1.46266 19.1201 2.78923 16.0458C4.1158 12.9715 5.91615 10.2973 8.19027 8.02321C10.4644 5.74909 13.1386 3.94875 16.2129 2.62218C19.2871 1.29561 22.572 0.632324 26.0674 0.632324C29.5628 0.632324 32.8476 1.29561 35.9219 2.62218C38.9962 3.94875 41.6704 5.74909 43.9445 8.02321C46.2186 10.2973 48.0189 12.9715 49.3455 16.0458C50.6721 19.1201 51.3354 22.4049 51.3354 25.9003C51.3354 29.3957 50.6721 32.6806 49.3455 35.7548C48.0189 38.8291 46.2186 41.5033 43.9445 43.7774C41.6704 46.0515 38.9962 47.8519 35.9219 49.1785C32.8476 50.505 29.5628 51.1683 26.0674 51.1683ZM26.0674 46.1147C31.7106 46.1147 36.4904 44.1564 40.407 40.2399C44.3235 36.3234 46.2818 31.5435 46.2818 25.9003C46.2818 20.2571 44.3235 15.4773 40.407 11.5607C36.4904 7.64419 31.7106 5.68592 26.0674 5.68592C20.4242 5.68592 15.6443 7.64419 11.7278 11.5607C7.81125 15.4773 5.85298 20.2571 5.85298 25.9003C5.85298 31.5435 7.81125 36.3234 11.7278 40.2399C15.6443 44.1564 20.4242 46.1147 26.0674 46.1147ZM26.0674 41.0611C21.856 41.0611 18.2764 39.5872 15.3285 36.6392C12.3805 33.6913 10.9066 30.1117 10.9066 25.9003C10.9066 21.689 12.3805 18.1094 15.3285 15.1614C18.2764 12.2135 21.856 10.7395 26.0674 10.7395C30.2787 10.7395 33.8583 12.2135 36.8063 15.1614C39.7542 18.1094 41.2282 21.689 41.2282 25.9003C41.2282 30.1117 39.7542 33.6913 36.8063 36.6392C33.8583 39.5872 30.2787 41.0611 26.0674 41.0611ZM26.0674 36.0075C28.8469 36.0075 31.2263 35.0179 33.2056 33.0385C35.1849 31.0592 36.1746 28.6798 36.1746 25.9003C36.1746 23.1208 35.1849 20.7414 33.2056 18.7621C31.2263 16.7828 28.8469 15.7931 26.0674 15.7931C23.2879 15.7931 20.9085 16.7828 18.9292 18.7621C16.9498 20.7414 15.9602 23.1208 15.9602 25.9003C15.9602 28.6798 16.9498 31.0592 18.9292 33.0385C20.9085 35.0179 23.2879 36.0075 26.0674 36.0075ZM26.0674 30.9539C24.6776 30.9539 23.4879 30.4591 22.4983 29.4694C21.5086 28.4798 21.0138 27.2901 21.0138 25.9003C21.0138 24.5106 21.5086 23.3209 22.4983 22.3312C23.4879 21.3416 24.6776 20.8467 26.0674 20.8467C27.4571 20.8467 28.6468 21.3416 29.6365 22.3312C30.6261 23.3209 31.121 24.5106 31.121 25.9003C31.121 27.2901 30.6261 28.4798 29.6365 29.4694C28.6468 30.4591 27.4571 30.9539 26.0674 30.9539Z" fill="#202020"/>
</svg>
