<svg width="37" height="37" viewBox="0 0 37 37" fill="none" xmlns="http://www.w3.org/2000/svg">
<path d="M3.7 37C2.6825 37 1.81146 36.6377 1.08687 35.9131C0.362292 35.1885 0 34.3175 0 33.3V12.95C0 11.9325 0.362292 11.0615 1.08687 10.3369C1.81146 9.61229 2.6825 9.25 3.7 9.25H12.95V3.7C12.95 2.6825 13.3123 1.81146 14.0369 1.08687C14.7615 0.362292 15.6325 0 16.65 0H20.35C21.3675 0 22.2385 0.362292 22.9631 1.08687C23.6877 1.81146 24.05 2.6825 24.05 3.7V9.25H33.3C34.3175 9.25 35.1885 9.61229 35.9131 10.3369C36.6377 11.0615 37 11.9325 37 12.95V33.3C37 34.3175 36.6377 35.1885 35.9131 35.9131C35.1885 36.6377 34.3175 37 33.3 37H3.7ZM3.7 33.3H33.3V12.95H24.05C24.05 13.9675 23.6877 14.8385 22.9631 15.5631C22.2385 16.2877 21.3675 16.65 20.35 16.65H16.65C15.6325 16.65 14.7615 16.2877 14.0369 15.5631C13.3123 14.8385 12.95 13.9675 12.95 12.95H3.7V33.3ZM7.4 29.6H18.5V28.7675C18.5 28.2433 18.3535 27.7577 18.0606 27.3106C17.7677 26.8635 17.3592 26.5167 16.835 26.27C16.2183 25.9925 15.594 25.7844 14.9619 25.6456C14.3298 25.5069 13.6592 25.4375 12.95 25.4375C12.2408 25.4375 11.5702 25.5069 10.9381 25.6456C10.306 25.7844 9.68167 25.9925 9.065 26.27C8.54083 26.5167 8.13229 26.8635 7.83938 27.3106C7.54646 27.7577 7.4 28.2433 7.4 28.7675V29.6ZM22.2 26.825H29.6V24.05H22.2V26.825ZM12.95 24.05C13.7208 24.05 14.376 23.7802 14.9156 23.2406C15.4552 22.701 15.725 22.0458 15.725 21.275C15.725 20.5042 15.4552 19.849 14.9156 19.3094C14.376 18.7698 13.7208 18.5 12.95 18.5C12.1792 18.5 11.524 18.7698 10.9844 19.3094C10.4448 19.849 10.175 20.5042 10.175 21.275C10.175 22.0458 10.4448 22.701 10.9844 23.2406C11.524 23.7802 12.1792 24.05 12.95 24.05ZM22.2 21.275H29.6V18.5H22.2V21.275ZM16.65 12.95H20.35V3.7H16.65V12.95Z" fill="url(#paint0_linear_106_326)"/>
<defs>
<linearGradient id="paint0_linear_106_326" x1="2.75672e-07" y1="18.5" x2="37" y2="18.5" gradientUnits="userSpaceOnUse">
<stop stop-color="#00FFDA"/>
<stop offset="1" stop-color="#3C3DF7"/>
</linearGradient>
</defs>
</svg>
