<svg width="76" height="76" viewBox="0 0 76 76" fill="none" xmlns="http://www.w3.org/2000/svg">
<circle cx="38" cy="38" r="38" fill="#202020"/>
<path d="M28.4604 47.6448C27.4494 47.6448 26.5839 47.2807 25.8639 46.5525C25.144 45.8242 24.784 44.9488 24.784 43.9262V25.3329C24.784 24.3103 25.144 23.4348 25.8639 22.7066C26.5839 21.9784 27.4494 21.6143 28.4604 21.6143H54.1952C55.2062 21.6143 56.0716 21.9784 56.7916 22.7066C57.5116 23.4348 57.8716 24.3103 57.8716 25.3329V43.9262C57.8716 44.9488 57.5116 45.8242 56.7916 46.5525C56.0716 47.2807 55.2062 47.6448 54.1952 47.6448H28.4604ZM41.3278 38.906L28.4604 29.8418V43.9262H54.1952V29.8418L41.3278 38.906ZM41.3278 34.3506L54.1952 25.3329H28.4604L41.3278 34.3506ZM21.1076 55.0821C20.0966 55.0821 19.2311 54.718 18.5111 53.9898C17.7912 53.2616 17.4312 52.3861 17.4312 51.3635V28.1219H21.1076V51.3635H51.4379V55.0821H21.1076Z" fill="#E8E8E8"/>
</svg>
