<svg width="51" height="51" viewBox="0 0 51 51" fill="none" xmlns="http://www.w3.org/2000/svg">
<path d="M14.0389 42.1167H18.2506V36.5011H23.8661V32.2894H18.2506V26.6739H14.0389V32.2894H8.42333V36.5011H14.0389V42.1167ZM28.0778 40.0108H42.1167V35.7992H28.0778V40.0108ZM28.0778 32.9914H42.1167V28.7797H28.0778V32.9914ZM31.1663 22.3218L35.0972 18.3909L39.0281 22.3218L41.9763 19.3737L38.0454 15.3024L41.9763 11.3715L39.0281 8.42333L35.0972 12.3542L31.1663 8.42333L28.2182 11.3715L32.1491 15.3024L28.2182 19.3737L31.1663 22.3218ZM9.12528 17.4082H23.1642V13.1966H9.12528V17.4082ZM5.61556 50.54C4.07128 50.54 2.74928 49.9901 1.64957 48.8904C0.549856 47.7907 0 46.4687 0 44.9244V5.61556C0 4.07128 0.549856 2.74928 1.64957 1.64957C2.74928 0.549856 4.07128 0 5.61556 0H44.9244C46.4687 0 47.7907 0.549856 48.8904 1.64957C49.9901 2.74928 50.54 4.07128 50.54 5.61556V44.9244C50.54 46.4687 49.9901 47.7907 48.8904 48.8904C47.7907 49.9901 46.4687 50.54 44.9244 50.54H5.61556ZM5.61556 44.9244H44.9244V5.61556H5.61556V44.9244Z" fill="#202020"/>
</svg>
