<svg width="52" height="52" viewBox="0 0 52 52" fill="none" xmlns="http://www.w3.org/2000/svg">
<path d="M5.69679 51.1253C4.30705 51.1253 3.11735 50.6305 2.12768 49.6409C1.13802 48.6512 0.643188 47.4615 0.643188 46.0717V18.277C0.643188 16.8872 1.13802 15.6975 2.12768 14.7078C3.11735 13.7182 4.30705 13.2234 5.69679 13.2234H18.3308V5.64295C18.3308 4.25321 18.8256 3.06351 19.8153 2.07385C20.8049 1.08419 21.9946 0.589355 23.3844 0.589355H28.438C29.8277 0.589355 31.0174 1.08419 32.0071 2.07385C32.9967 3.06351 33.4916 4.25321 33.4916 5.64295V13.2234H46.1256C47.5153 13.2234 48.705 13.7182 49.6947 14.7078C50.6843 15.6975 51.1792 16.8872 51.1792 18.277V46.0717C51.1792 47.4615 50.6843 48.6512 49.6947 49.6409C48.705 50.6305 47.5153 51.1253 46.1256 51.1253H5.69679ZM5.69679 46.0717H46.1256V18.277H33.4916C33.4916 19.6667 32.9967 20.8564 32.0071 21.8461C31.0174 22.8357 29.8277 23.3306 28.438 23.3306H23.3844C21.9946 23.3306 20.8049 22.8357 19.8153 21.8461C18.8256 20.8564 18.3308 19.6667 18.3308 18.277H5.69679V46.0717ZM10.7504 41.0181H25.9112V39.8811C25.9112 39.1652 25.7111 38.5019 25.3111 37.8912C24.911 37.2806 24.353 36.8068 23.6371 36.4699C22.7948 36.0909 21.942 35.8066 21.0787 35.6171C20.2154 35.4276 19.2994 35.3328 18.3308 35.3328C17.3622 35.3328 16.4462 35.4276 15.5829 35.6171C14.7196 35.8066 13.8668 36.0909 13.0245 36.4699C12.3086 36.8068 11.7506 37.2806 11.3505 37.8912C10.9504 38.5019 10.7504 39.1652 10.7504 39.8811V41.0181ZM30.9648 37.2279H41.072V33.4377H30.9648V37.2279ZM18.3308 33.4377C19.3836 33.4377 20.2785 33.0693 21.0155 32.3323C21.7525 31.5953 22.121 30.7004 22.121 29.6475C22.121 28.5947 21.7525 27.6998 21.0155 26.9628C20.2785 26.2258 19.3836 25.8573 18.3308 25.8573C17.278 25.8573 16.383 26.2258 15.6461 26.9628C14.9091 27.6998 14.5406 28.5947 14.5406 29.6475C14.5406 30.7004 14.9091 31.5953 15.6461 32.3323C16.383 33.0693 17.278 33.4377 18.3308 33.4377ZM30.9648 29.6475H41.072V25.8573H30.9648V29.6475ZM23.3844 18.277H28.438V5.64295H23.3844V18.277Z" fill="#202020"/>
</svg>
