<svg width="57" height="51" viewBox="0 0 57 51" fill="none" xmlns="http://www.w3.org/2000/svg">
<path d="M25.27 50.54V44.9244H47.7322V24.9892C47.7322 19.5141 45.8253 14.8695 42.0114 11.0556C38.1975 7.24173 33.5529 5.33478 28.0778 5.33478C22.6026 5.33478 17.9581 7.24173 14.1442 11.0556C10.3303 14.8695 8.42333 19.5141 8.42333 24.9892V42.1167H5.61556C4.07128 42.1167 2.74928 41.5668 1.64957 40.4671C0.549856 39.3674 0 38.0454 0 36.5011V30.8856C0 29.9028 0.245681 28.9786 0.737042 28.1129C1.2284 27.2471 1.91865 26.5569 2.80778 26.0421L3.01836 22.3218C3.39273 19.1397 4.31696 16.1915 5.79104 13.4773C7.26513 10.7631 9.11358 8.39994 11.3364 6.38769C13.5592 4.37545 16.1096 2.80778 18.9876 1.68467C21.8656 0.561556 24.8956 0 28.0778 0C31.2599 0 34.2783 0.561556 37.1329 1.68467C39.9874 2.80778 42.5378 4.36375 44.7841 6.3526C47.0303 8.34144 48.8787 10.693 50.3294 13.4071C51.7801 16.1213 52.716 19.0695 53.1372 22.2516L53.3478 25.9018C54.2369 26.3229 54.9272 26.9547 55.4185 27.797C55.9099 28.6393 56.1556 29.5285 56.1556 30.4644V36.9223C56.1556 37.8582 55.9099 38.7473 55.4185 39.5897C54.9272 40.432 54.2369 41.0638 53.3478 41.4849V44.9244C53.3478 46.4687 52.7979 47.7907 51.6982 48.8904C50.5985 49.9901 49.2765 50.54 47.7322 50.54H25.27ZM19.6544 30.8856C18.8589 30.8856 18.1921 30.6165 17.6539 30.0783C17.1157 29.5402 16.8467 28.8733 16.8467 28.0778C16.8467 27.2822 17.1157 26.6154 17.6539 26.0772C18.1921 25.5391 18.8589 25.27 19.6544 25.27C20.45 25.27 21.1168 25.5391 21.655 26.0772C22.1931 26.6154 22.4622 27.2822 22.4622 28.0778C22.4622 28.8733 22.1931 29.5402 21.655 30.0783C21.1168 30.6165 20.45 30.8856 19.6544 30.8856ZM36.5011 30.8856C35.7056 30.8856 35.0387 30.6165 34.5006 30.0783C33.9624 29.5402 33.6933 28.8733 33.6933 28.0778C33.6933 27.2822 33.9624 26.6154 34.5006 26.0772C35.0387 25.5391 35.7056 25.27 36.5011 25.27C37.2966 25.27 37.9635 25.5391 38.5017 26.0772C39.0398 26.6154 39.3089 27.2822 39.3089 28.0778C39.3089 28.8733 39.0398 29.5402 38.5017 30.0783C37.9635 30.6165 37.2966 30.8856 36.5011 30.8856ZM11.3013 26.5335C10.9737 21.5731 12.4712 17.3146 15.7937 13.7581C19.1163 10.2016 23.2578 8.42333 28.2182 8.42333C32.383 8.42333 36.0448 9.74533 39.2036 12.3893C42.3623 15.0333 44.2693 18.4143 44.9244 22.5324C40.666 22.4856 36.7468 21.3391 33.1669 19.0929C29.587 16.8467 26.8377 13.8049 24.919 9.96761C24.1703 13.7113 22.5909 17.0456 20.1809 19.9703C17.7709 22.8951 14.811 25.0828 11.3013 26.5335Z" fill="#202020"/>
</svg>
