<svg width="76" height="76" viewBox="0 0 76 76" fill="none" xmlns="http://www.w3.org/2000/svg">
<circle cx="38" cy="38" r="38" fill="#202020"/>
<path d="M52.5176 54.47C48.6437 54.47 44.8164 53.6255 41.0355 51.9365C37.2546 50.2475 33.8147 47.8535 30.7156 44.7544C27.6165 41.6553 25.2225 38.2154 23.5335 34.4345C21.8445 30.6536 21 26.8263 21 22.9524C21 22.3946 21.1859 21.9297 21.5578 21.5578C21.9297 21.1859 22.3946 21 22.9524 21H30.4832C30.917 21 31.3044 21.1472 31.6453 21.4416C31.9862 21.736 32.1877 22.0847 32.2496 22.4876L33.4583 28.9956C33.5203 29.4915 33.5048 29.9098 33.4118 30.2507C33.3188 30.5916 33.1484 30.886 32.9004 31.134L28.3913 35.6896C29.0111 36.8363 29.7471 37.9442 30.5994 39.0134C31.4516 40.0826 32.3891 41.113 33.4118 42.1047C34.3725 43.0654 35.3797 43.9564 36.4334 44.7776C37.4871 45.5989 38.6027 46.3504 39.7804 47.0322L44.1501 42.6625C44.429 42.3836 44.7931 42.1744 45.2425 42.035C45.6919 41.8955 46.1335 41.8568 46.5674 41.9188L52.9824 43.2204C53.4163 43.3443 53.7727 43.569 54.0516 43.8944C54.3305 44.2198 54.47 44.584 54.47 44.9868V52.5176C54.47 53.0754 54.2841 53.5403 53.9122 53.9122C53.5403 54.2841 53.0754 54.47 52.5176 54.47Z" fill="#E8E8E8"/>
</svg>
