<svg width="37" height="37" viewBox="0 0 37 37" fill="none" xmlns="http://www.w3.org/2000/svg">
<path d="M10.2778 30.8333H13.3611V26.7222H17.4722V23.6389H13.3611V19.5278H10.2778V23.6389H6.16667V26.7222H10.2778V30.8333ZM20.5556 29.2917H30.8333V26.2083H20.5556V29.2917ZM20.5556 24.1528H30.8333V21.0694H20.5556V24.1528ZM22.8167 16.3417L25.6944 13.4639L28.5722 16.3417L30.7306 14.1833L27.8528 11.2028L30.7306 8.325L28.5722 6.16667L25.6944 9.04445L22.8167 6.16667L20.6583 8.325L23.5361 11.2028L20.6583 14.1833L22.8167 16.3417ZM6.68056 12.7444H16.9583V9.66111H6.68056V12.7444ZM4.11111 37C2.98056 37 2.01273 36.5975 1.20764 35.7924C0.402546 34.9873 0 34.0194 0 32.8889V4.11111C0 2.98056 0.402546 2.01273 1.20764 1.20764C2.01273 0.402546 2.98056 0 4.11111 0H32.8889C34.0194 0 34.9873 0.402546 35.7924 1.20764C36.5975 2.01273 37 2.98056 37 4.11111V32.8889C37 34.0194 36.5975 34.9873 35.7924 35.7924C34.9873 36.5975 34.0194 37 32.8889 37H4.11111ZM4.11111 32.8889H32.8889V4.11111H4.11111V32.8889Z" fill="#BEBEBE"/>
</svg>
