<svg width="31" height="31" viewBox="0 0 31 31" fill="none" xmlns="http://www.w3.org/2000/svg">
<path d="M15.4151 0.389648C11.2616 0.389648 10.7393 0.40878 9.10743 0.481479C7.47552 0.558005 6.36398 0.814366 5.39019 1.19317C4.36828 1.57642 3.44289 2.1792 2.67927 2.959C1.89947 3.72261 1.29669 4.648 0.913444 5.66992C0.534642 6.64179 0.276368 7.75524 0.201755 9.38141C0.129056 11.0171 0.109924 11.5375 0.109924 15.6967C0.109924 19.852 0.129056 20.3724 0.201755 22.0043C0.278281 23.6343 0.534642 24.7459 0.913444 25.7196C1.30564 26.726 1.82793 27.5792 2.67927 28.4306C3.52871 29.2819 4.38197 29.8061 5.38828 30.1964C6.36398 30.5752 7.47361 30.8335 9.1036 30.9081C10.7374 30.9808 11.2578 30.9999 15.4151 30.9999C19.5723 30.9999 20.0908 30.9808 21.7246 30.9081C23.3527 30.8316 24.468 30.5752 25.4418 30.1964C26.4631 29.8129 27.3878 29.2101 28.1508 28.4306C29.0022 27.5792 29.5245 26.726 29.9167 25.7196C30.2936 24.7459 30.5518 23.6343 30.6284 22.0043C30.7011 20.3724 30.7202 19.852 30.7202 15.6948C30.7202 11.5375 30.7011 11.0171 30.6284 9.38333C30.5518 7.75524 30.2936 6.64179 29.9167 5.66992C29.5334 4.648 28.9306 3.72261 28.1508 2.959C27.3872 2.1792 26.4618 1.57642 25.4399 1.19317C24.4642 0.814366 23.3508 0.556092 21.7227 0.481479C20.0889 0.40878 19.5704 0.389648 15.4112 0.389648H15.4151ZM14.0433 3.1484H15.417C19.5034 3.1484 19.9875 3.16179 21.6002 3.2364C23.0925 3.30336 23.9037 3.55398 24.4432 3.76252C25.1568 4.03992 25.6676 4.37281 26.2033 4.90849C26.7389 5.44417 27.0699 5.95306 27.3473 6.66858C27.5578 7.20617 27.8065 8.01734 27.8734 9.50959C27.948 11.1224 27.9634 11.6064 27.9634 15.691C27.9634 19.7755 27.948 20.2614 27.8734 21.8742C27.8065 23.3665 27.5559 24.1757 27.3473 24.7152C27.1002 25.3789 26.7088 25.9794 26.2013 26.4734C25.6657 27.0091 25.1568 27.3401 24.4413 27.6175C23.9056 27.8279 23.0944 28.0766 21.6002 28.1455C19.9875 28.2182 19.5034 28.2354 15.417 28.2354C11.3305 28.2354 10.8446 28.2182 9.23178 28.1455C7.73953 28.0766 6.93027 27.8279 6.39077 27.6175C5.72659 27.3712 5.12541 26.9804 4.63068 26.4734C4.12231 25.9791 3.73022 25.3779 3.48279 24.7133C3.27426 24.1757 3.02364 23.3646 2.95668 21.8723C2.88398 20.2595 2.86867 19.7755 2.86867 15.6871C2.86867 11.5987 2.88398 11.1185 2.95668 9.50577C3.02555 8.01352 3.27426 7.20234 3.48471 6.66284C3.76211 5.94924 4.095 5.43843 4.63068 4.90275C5.16636 4.36707 5.67525 4.0361 6.39077 3.75869C6.93027 3.54824 7.73953 3.29954 9.23178 3.23066C10.6437 3.16562 11.1908 3.14649 14.0433 3.14457V3.1484ZM23.5861 5.68905C23.3449 5.68905 23.1061 5.73656 22.8832 5.82885C22.6604 5.92115 22.4579 6.05644 22.2874 6.22698C22.1169 6.39753 21.9816 6.6 21.8893 6.82282C21.797 7.04565 21.7495 7.28448 21.7495 7.52567C21.7495 7.76685 21.797 8.00568 21.8893 8.22851C21.9816 8.45134 22.1169 8.6538 22.2874 8.82435C22.4579 8.99489 22.6604 9.13018 22.8832 9.22248C23.1061 9.31478 23.3449 9.36228 23.5861 9.36228C24.0732 9.36228 24.5403 9.16878 24.8848 8.82435C25.2292 8.47992 25.4227 8.01277 25.4227 7.52567C25.4227 7.03857 25.2292 6.57141 24.8848 6.22698C24.5403 5.88255 24.0732 5.68905 23.5861 5.68905ZM15.417 7.83559C14.3744 7.81933 13.3391 8.01062 12.3712 8.39833C11.4033 8.78604 10.5222 9.36242 9.77923 10.0939C9.03623 10.8254 8.44618 11.6974 8.04342 12.6591C7.64066 13.6208 7.43324 14.6531 7.43324 15.6957C7.43324 16.7384 7.64066 17.7706 8.04342 18.7324C8.44618 19.6941 9.03623 20.5661 9.77923 21.2976C10.5222 22.0291 11.4033 22.6054 12.3712 22.9931C13.3391 23.3809 14.3744 23.5721 15.417 23.5559C17.4804 23.5237 19.4484 22.6814 20.8962 21.2108C22.344 19.7403 23.1554 17.7594 23.1554 15.6957C23.1554 13.6321 22.344 11.6512 20.8962 10.1806C19.4484 8.71007 17.4804 7.86779 15.417 7.83559ZM15.417 10.5924C16.087 10.5924 16.7505 10.7244 17.3696 10.9808C17.9886 11.2372 18.5511 11.6131 19.0249 12.0869C19.4987 12.5607 19.8745 13.1231 20.1309 13.7422C20.3873 14.3612 20.5193 15.0247 20.5193 15.6948C20.5193 16.3648 20.3873 17.0283 20.1309 17.6474C19.8745 18.2664 19.4987 18.8289 19.0249 19.3027C18.5511 19.7765 17.9886 20.1523 17.3696 20.4087C16.7505 20.6652 16.087 20.7971 15.417 20.7971C14.0637 20.7971 12.7659 20.2596 11.8091 19.3027C10.8522 18.3458 10.3146 17.048 10.3146 15.6948C10.3146 14.3416 10.8522 13.0438 11.8091 12.0869C12.7659 11.13 14.0637 10.5924 15.417 10.5924Z" fill="#BEBEBE"/>
</svg>
